<svg width="500" height="500" viewBox="0 0 500 500" fill="none" xmlns="http://www.w3.org/2000/svg">
<path d="M435.02 165.234C435.02 165.234 439.748 101.489 373.633 58.9886C307.518 16.488 213.074 24.746 149.317 57.8035C85.5594 90.8609 95.0151 166.369 73.809 214.77C52.6028 263.171 4.15131 271.504 7.69407 337.556C11.2368 403.608 52.565 435.543 99.7304 446.172C146.896 456.8 190.645 443.814 233.145 450.887C275.646 457.96 334.675 472.144 403.148 444.987C471.62 417.83 484.606 343.457 475.163 284.427C465.72 225.398 435.02 204.154 435.02 165.234Z" fill="#008080"/>
<path opacity="0.7" d="M435.02 165.234C435.02 165.234 439.748 101.489 373.633 58.9886C307.518 16.488 213.074 24.746 149.317 57.8035C85.5594 90.8609 95.0151 166.369 73.809 214.77C52.6028 263.171 4.15131 271.504 7.69407 337.556C11.2368 403.608 52.565 435.543 99.7304 446.172C146.896 456.8 190.645 443.814 233.145 450.887C275.646 457.96 334.675 472.144 403.148 444.987C471.62 417.83 484.606 343.457 475.163 284.427C465.72 225.398 435.02 204.154 435.02 165.234Z" fill="white"/>
<path d="M371.477 416.279H128.426L147.615 397.758H352.288L371.477 416.279Z" fill="white" stroke="#263238" stroke-linecap="round" stroke-linejoin="round"/>
<path d="M344.471 404.906C344.471 408.689 300.458 411.803 246.131 411.803C191.805 411.803 147.791 408.714 147.791 404.906C147.791 401.099 191.805 397.997 246.131 397.997C300.458 397.997 344.471 401.086 344.471 404.906Z" fill="#008080"/>
<path opacity="0.5" d="M344.471 404.906C344.471 408.689 300.458 411.803 246.131 411.803C191.805 411.803 147.791 408.714 147.791 404.906C147.791 401.099 191.805 397.997 246.131 397.997C300.458 397.997 344.471 401.086 344.471 404.906Z" fill="white"/>
<path d="M371.477 416.279H128.426V433.438H371.477V416.279Z" fill="#263238" stroke="#263238" stroke-linecap="round" stroke-linejoin="round"/>
<path d="M388.674 451.946H111.228L128.425 433.438H371.477L388.674 451.946Z" fill="white" stroke="#263238" stroke-linecap="round" stroke-linejoin="round"/>
<path d="M388.623 451.946H111.278V470H388.623V451.946Z" fill="#263238" stroke="#263238" stroke-linecap="round" stroke-linejoin="round"/>
<path d="M247.266 233.227V117.829H291.179V69.2764" stroke="#263238" stroke-miterlimit="10"/>
<path d="M264.425 117.287V69.2764" stroke="#263238" stroke-miterlimit="10"/>
<path d="M250.544 251.622H452.721V222.876H491.364" stroke="#263238" stroke-miterlimit="10"/>
<path d="M240.634 250.626H48.3788V219.913H6.76074" stroke="#263238" stroke-miterlimit="10"/>
<path d="M207.93 38.5515V82.1616H183.156V109.899H213.881V203.057" stroke="#263238" stroke-miterlimit="10"/>
<path d="M343.702 167.377V104.944H360.546V78.1899H374.427" stroke="#263238" stroke-miterlimit="10"/>
<path d="M139.558 161.439V113.87L125.677 99.989V65.3052" stroke="#263238" stroke-miterlimit="10"/>
<path d="M381.362 189.188H416.046V166.394H438.84V153.509H458.66" stroke="#263238" stroke-miterlimit="10"/>
<path d="M104.861 197.119H68.1982V168.373H16.6704" stroke="#263238" stroke-miterlimit="10"/>
<path d="M138.562 352.698V378.468H121.718V407.214H73.1533" stroke="#263238" stroke-miterlimit="10"/>
<path d="M323.883 356.669V383.423H362.526V372.53H373.432V395.312H407.132" stroke="#263238" stroke-miterlimit="10"/>
<path d="M294.003 69.2764C294 69.8345 293.832 70.3792 293.521 70.842C293.209 71.3048 292.767 71.6648 292.251 71.8766C291.734 72.0884 291.167 72.1425 290.62 72.0321C290.073 71.9218 289.571 71.6518 289.177 71.2563C288.784 70.8609 288.516 70.3577 288.408 69.8102C288.3 69.2627 288.357 68.6955 288.571 68.1802C288.785 67.6649 289.147 67.2246 289.611 66.9148C290.075 66.605 290.621 66.4397 291.179 66.4397C291.551 66.4397 291.919 66.5132 292.262 66.6559C292.606 66.7986 292.918 67.0077 293.18 67.2713C293.442 67.5349 293.65 67.8477 293.791 68.1918C293.933 68.5359 294.004 68.9045 294.003 69.2764Z" fill="#263238" stroke="#263238" stroke-linecap="round" stroke-linejoin="round"/>
<path d="M267.35 69.2764C267.348 69.8345 267.18 70.3792 266.868 70.842C266.557 71.3048 266.115 71.6648 265.598 71.8766C265.082 72.0884 264.515 72.1425 263.968 72.0321C263.421 71.9218 262.919 71.6518 262.525 71.2563C262.131 70.8609 261.863 70.3577 261.755 69.8102C261.648 69.2627 261.704 68.6955 261.918 68.1802C262.132 67.6649 262.494 67.2246 262.959 66.9148C263.423 66.605 263.968 66.4397 264.526 66.4397C264.898 66.4397 265.266 66.5132 265.61 66.6559C265.953 66.7986 266.265 67.0077 266.528 67.2713C266.79 67.5349 266.998 67.8477 267.139 68.1918C267.28 68.5359 267.352 68.9045 267.35 69.2764Z" fill="#263238" stroke="#263238" stroke-linecap="round" stroke-linejoin="round"/>
<path d="M210.779 37.7318C210.779 38.2934 210.612 38.8423 210.3 39.3091C209.988 39.7759 209.544 40.1394 209.025 40.3538C208.506 40.5681 207.935 40.6235 207.384 40.5131C206.834 40.4026 206.328 40.1311 205.932 39.7332C205.536 39.3352 205.266 38.8285 205.158 38.2774C205.05 37.7263 205.108 37.1556 205.325 36.6374C205.542 36.1193 205.907 35.6772 206.375 35.367C206.844 35.0568 207.393 34.8926 207.955 34.895C208.327 34.895 208.695 34.9685 209.038 35.1112C209.382 35.2539 209.694 35.4631 209.956 35.7267C210.219 35.9903 210.426 36.3031 210.568 36.6472C210.709 36.9913 210.781 37.3599 210.779 37.7318Z" fill="#263238" stroke="#263238" stroke-linecap="round" stroke-linejoin="round"/>
<path d="M128.526 63.8802C128.524 64.4382 128.356 64.983 128.044 65.4457C127.732 65.9085 127.29 66.2685 126.774 66.4803C126.258 66.6922 125.69 66.7463 125.143 66.6359C124.596 66.5255 124.094 66.2556 123.701 65.8601C123.307 65.4646 123.039 64.9614 122.931 64.4139C122.823 63.8664 122.88 63.2993 123.094 62.7839C123.308 62.2686 123.67 61.8283 124.134 61.5185C124.598 61.2088 125.144 61.0435 125.702 61.0435C126.074 61.0435 126.442 61.1169 126.786 61.2596C127.129 61.4023 127.441 61.6115 127.703 61.8751C127.966 62.1387 128.174 62.4515 128.315 62.7956C128.456 63.1397 128.528 63.5083 128.526 63.8802Z" fill="#263238" stroke="#263238" stroke-linecap="round" stroke-linejoin="round"/>
<path d="M19.4947 168.373C19.4972 168.935 19.3327 169.486 19.0219 169.954C18.7112 170.422 18.2683 170.788 17.7494 171.004C17.2306 171.22 16.6591 171.278 16.1077 171.169C15.5562 171.06 15.0496 170.789 14.6522 170.392C14.2547 169.994 13.9842 169.488 13.8752 168.936C13.7661 168.385 13.8234 167.813 14.0396 167.294C14.2559 166.776 14.6215 166.333 15.0899 166.022C15.5583 165.711 16.1085 165.547 16.6706 165.549C17.4196 165.549 18.1379 165.847 18.6676 166.376C19.1972 166.906 19.4947 167.624 19.4947 168.373Z" fill="#263238" stroke="#263238" stroke-linecap="round" stroke-linejoin="round"/>
<path d="M9.67348 219.825C9.67348 220.386 9.5071 220.934 9.1954 221.401C8.88369 221.867 8.44066 222.231 7.92231 222.446C7.40397 222.66 6.83359 222.716 6.28332 222.607C5.73305 222.498 5.22759 222.227 4.83086 221.831C4.43414 221.434 4.16396 220.928 4.05451 220.378C3.94505 219.828 4.00123 219.258 4.21593 218.739C4.43064 218.221 4.79423 217.778 5.26073 217.466C5.72723 217.154 6.27569 216.988 6.83674 216.988C7.58909 216.988 8.31062 217.287 8.84261 217.819C9.3746 218.351 9.67348 219.072 9.67348 219.825Z" fill="#263238" stroke="#263238" stroke-linecap="round" stroke-linejoin="round"/>
<path d="M76.2296 406.672C76.2296 407.233 76.0629 407.782 75.7507 408.249C75.4384 408.716 74.9946 409.079 74.4755 409.294C73.9564 409.508 73.3854 409.563 72.8348 409.453C72.2842 409.342 71.7788 409.071 71.3826 408.673C70.9863 408.275 70.7172 407.768 70.6091 407.217C70.5011 406.666 70.5591 406.096 70.7757 405.577C70.9924 405.059 71.3579 404.617 71.8261 404.307C72.2942 403.997 72.8439 403.832 73.4055 403.835C73.7774 403.835 74.1457 403.908 74.4892 404.051C74.8326 404.194 75.1445 404.403 75.4069 404.667C75.6693 404.93 75.8771 405.243 76.0183 405.587C76.1595 405.931 76.2313 406.3 76.2296 406.672Z" fill="#263238" stroke="#263238" stroke-linecap="round" stroke-linejoin="round"/>
<path d="M411.393 394.757C411.396 395.319 411.231 395.868 410.921 396.336C410.611 396.805 410.169 397.17 409.651 397.387C409.133 397.603 408.562 397.661 408.011 397.553C407.46 397.445 406.953 397.176 406.555 396.78C406.157 396.384 405.886 395.878 405.775 395.328C405.665 394.777 405.72 394.206 405.934 393.687C406.149 393.168 406.512 392.724 406.979 392.412C407.446 392.1 407.995 391.933 408.556 391.933C408.928 391.931 409.297 392.003 409.641 392.144C409.985 392.285 410.298 392.493 410.562 392.756C410.825 393.018 411.034 393.33 411.177 393.673C411.32 394.017 411.393 394.385 411.393 394.757Z" fill="#263238" stroke="#263238" stroke-linecap="round" stroke-linejoin="round"/>
<path d="M495.625 222.321C495.625 222.88 495.46 223.426 495.149 223.89C494.839 224.355 494.398 224.717 493.882 224.931C493.366 225.144 492.798 225.2 492.25 225.091C491.702 224.982 491.199 224.713 490.804 224.318C490.409 223.923 490.14 223.42 490.031 222.872C489.922 222.325 489.978 221.757 490.192 221.241C490.406 220.725 490.768 220.284 491.232 219.973C491.697 219.663 492.243 219.497 492.801 219.497C493.55 219.497 494.269 219.795 494.798 220.324C495.328 220.854 495.625 221.572 495.625 222.321Z" fill="#263238" stroke="#263238" stroke-linecap="round" stroke-linejoin="round"/>
<path d="M462.82 152.904C462.82 153.462 462.654 154.008 462.344 154.473C462.034 154.937 461.593 155.299 461.077 155.513C460.561 155.727 459.993 155.783 459.445 155.674C458.897 155.565 458.394 155.296 457.999 154.901C457.604 154.506 457.335 154.003 457.226 153.455C457.117 152.907 457.173 152.339 457.387 151.823C457.601 151.307 457.963 150.866 458.427 150.556C458.891 150.245 459.437 150.08 459.996 150.08C460.745 150.08 461.463 150.377 461.993 150.907C462.523 151.436 462.82 152.155 462.82 152.904Z" fill="#263238" stroke="#263238" stroke-linecap="round" stroke-linejoin="round"/>
<path d="M379.08 78.1144C379.08 78.673 378.914 79.219 378.604 79.6834C378.294 80.1478 377.853 80.5098 377.337 80.7236C376.82 80.9373 376.253 80.9932 375.705 80.8843C375.157 80.7753 374.654 80.5063 374.259 80.1114C373.864 79.7164 373.595 79.2132 373.486 78.6654C373.377 78.1175 373.433 77.5497 373.647 77.0337C373.86 76.5176 374.222 76.0765 374.687 75.7662C375.151 75.4559 375.697 75.2903 376.256 75.2903C377.005 75.2903 377.723 75.5878 378.253 76.1174C378.782 76.6471 379.08 77.3654 379.08 78.1144Z" fill="#263238" stroke="#263238" stroke-linecap="round" stroke-linejoin="round"/>
<path d="M284.257 377.674V353.089H210.274V377.674C210.252 385.712 207.475 393.499 202.407 399.737L199.167 403.747H295.339L292.111 399.737C287.043 393.5 284.271 385.711 284.257 377.674Z" fill="white"/>
<mask id="mask0_1289_1042" style="mask-type:luminance" maskUnits="userSpaceOnUse" x="199" y="353" width="97" height="51">
<path d="M284.257 377.674V353.089H210.274V377.674C210.252 385.712 207.475 393.499 202.407 399.737L199.167 403.747H295.339L292.111 399.737C287.043 393.5 284.271 385.711 284.257 377.674Z" fill="white"/>
</mask>
<g mask="url(#mask0_1289_1042)">
<path d="M205.736 394.896H288.796C285.824 389.642 284.26 383.71 284.257 377.674V353.089H210.275V377.674C210.272 383.71 208.709 389.642 205.736 394.896Z" fill="#008080"/>
<path opacity="0.3" d="M205.736 394.896H288.796C285.824 389.642 284.26 383.71 284.257 377.674V353.089H210.275V377.674C210.272 383.71 208.709 389.642 205.736 394.896Z" fill="white"/>
<path d="M205.736 368.974H288.796C285.824 363.721 284.26 357.788 284.257 351.752V327.167H210.275V351.752C210.272 357.788 208.709 363.721 205.736 368.974Z" fill="#263238"/>
</g>
<path d="M284.257 377.674V353.089H210.274V377.674C210.252 385.712 207.475 393.499 202.407 399.737L199.167 403.747H295.339L292.111 399.737C287.043 393.5 284.271 385.711 284.257 377.674Z" stroke="#263238" stroke-linecap="round" stroke-linejoin="round"/>
<path d="M385.232 142.527H109.3C103.395 142.527 98.6084 147.314 98.6084 153.219V350.139C98.6084 356.043 103.395 360.83 109.3 360.83H385.232C391.137 360.83 395.924 356.043 395.924 350.139V153.219C395.924 147.314 391.137 142.527 385.232 142.527Z" fill="#263238" stroke="#263238" stroke-linecap="round" stroke-linejoin="round"/>
<path d="M98.6084 326.903H395.924V350.139C395.924 352.974 394.797 355.694 392.792 357.699C390.787 359.704 388.068 360.83 385.232 360.83H109.3C106.464 360.83 103.745 359.704 101.74 357.699C99.7348 355.694 98.6084 352.974 98.6084 350.139V326.903Z" fill="white" stroke="#263238" stroke-linecap="round" stroke-linejoin="round"/>
<path d="M380.959 156.118H113.562V310.349H380.959V156.118Z" fill="white" stroke="#263238" stroke-linecap="round" stroke-linejoin="round"/>
<path d="M252.75 349.306C252.773 348.217 252.47 347.146 251.882 346.229C251.293 345.312 250.444 344.592 249.444 344.159C248.445 343.727 247.338 343.602 246.267 343.8C245.196 343.999 244.208 344.512 243.43 345.274C242.651 346.037 242.118 347.014 241.897 348.08C241.676 349.147 241.778 350.256 242.189 351.265C242.601 352.273 243.303 353.137 244.207 353.744C245.112 354.352 246.176 354.677 247.266 354.677C248.705 354.691 250.091 354.133 251.119 353.126C252.147 352.119 252.734 350.745 252.75 349.306Z" fill="#263238" stroke="#263238" stroke-linecap="round" stroke-linejoin="round"/>
<path d="M295.364 403.784H199.18V408.172H295.364V403.784Z" fill="white" stroke="#263238" stroke-linecap="round" stroke-linejoin="round"/>
<path d="M247.669 148.112C234.229 160.72 199.76 173.328 159.655 200.17C159.655 200.17 162.176 290.945 247.669 340.506V148.112Z" fill="#008080" stroke="#263238" stroke-linecap="round" stroke-linejoin="round"/>
<path d="M247.669 148.112C261.122 160.72 295.579 173.328 335.697 200.17C335.697 200.17 333.175 290.945 247.669 340.506V148.112Z" fill="#263238" stroke="#263238" stroke-linecap="round" stroke-linejoin="round"/>
<path d="M247.669 155.841C231.405 167.112 203.303 177.841 166.11 202.729C166.11 202.729 168.442 286.822 247.669 332.79C326.909 286.822 329.241 202.729 329.241 202.729C292.048 177.841 264.034 167.112 247.669 155.841Z" fill="#263238" stroke="#263238" stroke-linecap="round" stroke-linejoin="round"/>
<path d="M329.241 202.729C292.049 177.854 264.034 167.112 247.669 155.841V332.79C326.909 286.822 329.241 202.729 329.241 202.729Z" fill="#008080" stroke="#263238" stroke-linecap="round" stroke-linejoin="round"/>
<path d="M396.844 247.247H97.6885V266.613H396.844V247.247Z" fill="#263238" stroke="#263238" stroke-linecap="round" stroke-linejoin="round"/>
<path d="M103.575 250.323C103.583 250.721 103.472 251.112 103.256 251.447C103.04 251.781 102.73 252.044 102.364 252.202C101.999 252.359 101.595 252.404 101.203 252.331C100.812 252.258 100.451 252.07 100.167 251.792C99.883 251.513 99.6882 251.156 99.6078 250.766C99.5273 250.376 99.5648 249.971 99.7153 249.603C99.8659 249.234 100.123 248.919 100.453 248.697C100.784 248.475 101.173 248.356 101.571 248.356C101.832 248.353 102.091 248.401 102.333 248.498C102.575 248.595 102.796 248.74 102.982 248.922C103.169 249.105 103.317 249.323 103.419 249.563C103.52 249.804 103.574 250.062 103.575 250.323Z" fill="white"/>
<path d="M100.424 251.408C100.644 251.638 100.927 251.798 101.238 251.867C101.549 251.936 101.873 251.911 102.17 251.794C102.466 251.678 102.721 251.476 102.902 251.214C103.083 250.952 103.182 250.642 103.185 250.323C103.181 249.945 103.037 249.581 102.782 249.302C101.949 249.949 101.161 250.653 100.424 251.408Z" fill="#263238"/>
<path d="M111.443 250.323C111.453 250.724 111.343 251.119 111.128 251.457C110.912 251.795 110.601 252.062 110.233 252.222C109.866 252.383 109.459 252.43 109.064 252.358C108.67 252.286 108.305 252.098 108.018 251.818C107.731 251.538 107.534 251.178 107.452 250.786C107.37 250.393 107.407 249.985 107.558 249.614C107.709 249.242 107.967 248.924 108.3 248.7C108.633 248.476 109.025 248.356 109.426 248.356C109.687 248.353 109.947 248.401 110.19 248.498C110.433 248.595 110.654 248.739 110.842 248.922C111.029 249.104 111.179 249.322 111.282 249.563C111.385 249.803 111.44 250.061 111.443 250.323Z" fill="white"/>
<path d="M108.279 251.408C108.498 251.638 108.782 251.798 109.092 251.867C109.403 251.936 109.728 251.911 110.024 251.794C110.32 251.678 110.575 251.476 110.756 251.214C110.937 250.952 111.036 250.642 111.04 250.323C111.036 249.945 110.892 249.581 110.636 249.302C109.806 249.953 109.019 250.656 108.279 251.408Z" fill="#263238"/>
<path d="M119.297 250.323C119.257 250.829 119.028 251.301 118.655 251.646C118.283 251.99 117.794 252.181 117.286 252.181C116.779 252.181 116.29 251.99 115.917 251.646C115.545 251.301 115.315 250.829 115.275 250.323C115.315 249.818 115.545 249.345 115.917 249.001C116.29 248.657 116.779 248.466 117.286 248.466C117.794 248.466 118.283 248.657 118.655 249.001C119.028 249.345 119.257 249.818 119.297 250.323Z" fill="white"/>
<path d="M116.133 251.408C116.284 251.563 116.464 251.687 116.663 251.771C116.863 251.856 117.077 251.899 117.293 251.899C117.502 251.901 117.709 251.861 117.902 251.783C118.095 251.705 118.272 251.589 118.42 251.443C118.569 251.297 118.687 251.122 118.769 250.93C118.85 250.738 118.893 250.532 118.894 250.323C118.895 249.944 118.751 249.579 118.491 249.302C117.661 249.953 116.873 250.656 116.133 251.408Z" fill="#263238"/>
<path d="M127.152 250.323C127.16 250.721 127.049 251.112 126.833 251.447C126.618 251.781 126.307 252.044 125.942 252.202C125.576 252.359 125.172 252.404 124.78 252.331C124.389 252.258 124.028 252.07 123.744 251.792C123.46 251.513 123.265 251.156 123.185 250.766C123.104 250.376 123.142 249.971 123.292 249.603C123.443 249.234 123.7 248.919 124.03 248.697C124.361 248.475 124.75 248.356 125.148 248.356C125.409 248.353 125.668 248.401 125.91 248.498C126.152 248.595 126.373 248.74 126.559 248.922C126.746 249.105 126.894 249.323 126.996 249.563C127.098 249.804 127.151 250.062 127.152 250.323Z" fill="white"/>
<path d="M123.988 251.408C124.209 251.636 124.493 251.795 124.804 251.863C125.115 251.93 125.439 251.905 125.736 251.789C126.032 251.673 126.288 251.472 126.47 251.211C126.653 250.95 126.754 250.641 126.761 250.323C126.757 249.945 126.614 249.581 126.358 249.302C125.521 249.949 124.729 250.653 123.988 251.408Z" fill="#263238"/>
<path d="M135.007 250.323C135.014 250.721 134.903 251.112 134.688 251.447C134.472 251.781 134.162 252.044 133.796 252.202C133.43 252.359 133.026 252.404 132.635 252.331C132.244 252.258 131.883 252.07 131.599 251.792C131.315 251.513 131.12 251.156 131.039 250.766C130.959 250.376 130.996 249.971 131.147 249.603C131.297 249.234 131.554 248.919 131.885 248.697C132.215 248.475 132.604 248.356 133.002 248.356C133.263 248.353 133.522 248.401 133.765 248.498C134.007 248.595 134.228 248.74 134.414 248.922C134.6 249.105 134.748 249.323 134.85 249.563C134.952 249.804 135.005 250.062 135.007 250.323Z" fill="white"/>
<path d="M131.805 251.408C131.956 251.562 132.136 251.686 132.335 251.77C132.534 251.855 132.748 251.899 132.965 251.899C133.174 251.903 133.383 251.864 133.577 251.787C133.772 251.709 133.95 251.594 134.1 251.447C134.25 251.301 134.369 251.126 134.451 250.933C134.534 250.74 134.577 250.533 134.578 250.323C134.574 249.945 134.43 249.581 134.175 249.302C133.341 249.953 132.549 250.656 131.805 251.408Z" fill="#263238"/>
<path d="M142.861 250.323C142.869 250.721 142.758 251.112 142.542 251.447C142.326 251.781 142.016 252.044 141.651 252.202C141.285 252.359 140.881 252.404 140.489 252.331C140.098 252.258 139.737 252.07 139.453 251.792C139.169 251.513 138.974 251.156 138.894 250.766C138.813 250.376 138.851 249.971 139.001 249.603C139.152 249.234 139.409 248.919 139.739 248.697C140.07 248.475 140.459 248.356 140.857 248.356C141.118 248.353 141.377 248.401 141.619 248.498C141.861 248.595 142.082 248.74 142.268 248.922C142.455 249.105 142.603 249.323 142.705 249.563C142.807 249.804 142.86 250.062 142.861 250.323Z" fill="white"/>
<path d="M139.709 251.408C139.929 251.638 140.212 251.798 140.523 251.867C140.834 251.936 141.158 251.911 141.455 251.794C141.751 251.678 142.006 251.476 142.187 251.214C142.368 250.952 142.467 250.642 142.471 250.323C142.466 249.945 142.323 249.581 142.067 249.302C141.234 249.949 140.446 250.653 139.709 251.408Z" fill="#263238"/>
<path d="M150.715 250.323C150.726 250.724 150.616 251.119 150.4 251.457C150.185 251.795 149.873 252.062 149.506 252.222C149.138 252.383 148.731 252.43 148.337 252.358C147.942 252.286 147.578 252.098 147.291 251.818C147.003 251.538 146.806 251.178 146.724 250.786C146.642 250.393 146.679 249.985 146.83 249.614C146.981 249.242 147.24 248.924 147.572 248.7C147.905 248.476 148.297 248.356 148.698 248.356C148.96 248.353 149.22 248.401 149.463 248.498C149.705 248.595 149.927 248.739 150.114 248.922C150.302 249.104 150.451 249.322 150.554 249.563C150.657 249.803 150.712 250.061 150.715 250.323Z" fill="white"/>
<path d="M147.564 251.408C147.783 251.638 148.067 251.798 148.378 251.867C148.689 251.936 149.013 251.911 149.309 251.794C149.606 251.678 149.861 251.476 150.042 251.214C150.222 250.952 150.321 250.642 150.325 250.323C150.321 249.945 150.177 249.581 149.922 249.302C149.091 249.953 148.304 250.656 147.564 251.408Z" fill="#263238"/>
<path d="M158.584 250.323C158.591 250.721 158.48 251.112 158.264 251.447C158.049 251.781 157.738 252.044 157.373 252.202C157.007 252.359 156.603 252.404 156.212 252.331C155.82 252.258 155.46 252.07 155.175 251.792C154.891 251.513 154.697 251.156 154.616 250.766C154.536 250.376 154.573 249.971 154.724 249.603C154.874 249.234 155.131 248.919 155.461 248.697C155.792 248.475 156.181 248.356 156.579 248.356C156.84 248.353 157.099 248.401 157.341 248.498C157.584 248.595 157.804 248.74 157.99 248.922C158.177 249.105 158.325 249.323 158.427 249.563C158.529 249.804 158.582 250.062 158.584 250.323Z" fill="white"/>
<path d="M155.419 251.408C155.569 251.563 155.75 251.687 155.949 251.771C156.148 251.856 156.362 251.899 156.579 251.899C156.787 251.901 156.994 251.861 157.188 251.783C157.381 251.705 157.557 251.589 157.706 251.443C157.855 251.297 157.973 251.122 158.054 250.93C158.136 250.738 158.178 250.532 158.18 250.323C158.181 249.944 158.036 249.579 157.777 249.302C156.946 249.953 156.159 250.656 155.419 251.408Z" fill="#263238"/>
<path d="M166.438 250.323C166.445 250.721 166.334 251.112 166.118 251.447C165.903 251.781 165.592 252.044 165.227 252.202C164.861 252.359 164.457 252.404 164.066 252.331C163.674 252.258 163.314 252.07 163.029 251.792C162.745 251.513 162.551 251.156 162.47 250.766C162.39 250.376 162.427 249.971 162.578 249.603C162.728 249.234 162.985 248.919 163.315 248.697C163.646 248.475 164.035 248.356 164.433 248.356C164.694 248.353 164.953 248.401 165.195 248.498C165.438 248.595 165.658 248.74 165.845 248.922C166.031 249.105 166.179 249.323 166.281 249.563C166.383 249.804 166.436 250.062 166.438 250.323Z" fill="white"/>
<path d="M163.324 251.408C163.545 251.636 163.829 251.795 164.14 251.863C164.451 251.93 164.775 251.905 165.072 251.789C165.368 251.673 165.624 251.472 165.806 251.211C165.989 250.95 166.09 250.641 166.097 250.323C166.093 249.945 165.95 249.581 165.694 249.302C164.86 249.953 164.068 250.656 163.324 251.408Z" fill="#263238"/>
<path d="M174.292 250.323C174.3 250.721 174.188 251.112 173.973 251.447C173.757 251.781 173.447 252.044 173.081 252.202C172.716 252.359 172.311 252.404 171.92 252.331C171.529 252.258 171.168 252.07 170.884 251.792C170.6 251.513 170.405 251.156 170.325 250.766C170.244 250.376 170.282 249.971 170.432 249.603C170.583 249.234 170.84 248.919 171.17 248.697C171.5 248.475 171.889 248.356 172.287 248.356C172.548 248.353 172.808 248.401 173.05 248.498C173.292 248.595 173.513 248.74 173.699 248.922C173.885 249.105 174.034 249.323 174.135 249.563C174.237 249.804 174.29 250.062 174.292 250.323Z" fill="white"/>
<path d="M171.128 251.408C171.279 251.562 171.459 251.686 171.658 251.77C171.858 251.855 172.072 251.899 172.288 251.899C172.498 251.903 172.706 251.864 172.901 251.787C173.095 251.709 173.273 251.594 173.423 251.447C173.573 251.301 173.693 251.126 173.775 250.933C173.857 250.74 173.9 250.533 173.902 250.323C173.897 249.945 173.754 249.581 173.498 249.302C172.664 249.953 171.872 250.656 171.128 251.408Z" fill="#263238"/>
<path d="M182.147 250.323C182.154 250.721 182.043 251.112 181.827 251.447C181.612 251.781 181.301 252.044 180.936 252.202C180.57 252.359 180.166 252.404 179.775 252.331C179.383 252.258 179.023 252.07 178.738 251.792C178.454 251.513 178.26 251.156 178.179 250.766C178.099 250.376 178.136 249.971 178.287 249.603C178.437 249.234 178.694 248.919 179.024 248.697C179.355 248.475 179.744 248.356 180.142 248.356C180.403 248.353 180.662 248.401 180.904 248.498C181.147 248.595 181.367 248.74 181.553 248.922C181.74 249.105 181.888 249.323 181.99 249.563C182.092 249.804 182.145 250.062 182.147 250.323Z" fill="white"/>
<path d="M178.995 251.408C179.215 251.638 179.498 251.798 179.809 251.867C180.12 251.936 180.444 251.911 180.74 251.794C181.037 251.678 181.292 251.476 181.473 251.214C181.654 250.952 181.752 250.642 181.756 250.323C181.752 249.945 181.608 249.581 181.353 249.302C180.523 249.953 179.735 250.656 178.995 251.408Z" fill="#263238"/>
<path d="M190.014 250.323C190.024 250.724 189.914 251.12 189.698 251.458C189.482 251.797 189.17 252.063 188.801 252.223C188.433 252.383 188.025 252.43 187.63 252.357C187.235 252.284 186.871 252.095 186.584 251.813C186.298 251.532 186.102 251.172 186.021 250.778C185.94 250.385 185.979 249.976 186.132 249.605C186.285 249.233 186.546 248.916 186.88 248.694C187.214 248.471 187.608 248.354 188.009 248.356C188.27 248.353 188.529 248.401 188.772 248.498C189.014 248.595 189.234 248.74 189.421 248.922C189.607 249.105 189.755 249.323 189.857 249.563C189.959 249.804 190.012 250.062 190.014 250.323Z" fill="white"/>
<path d="M186.85 251.408C187.069 251.638 187.352 251.798 187.663 251.867C187.974 251.936 188.299 251.911 188.595 251.794C188.891 251.678 189.146 251.476 189.327 251.214C189.508 250.952 189.607 250.642 189.611 250.323C189.611 249.944 189.467 249.579 189.207 249.302C188.377 249.953 187.59 250.656 186.85 251.408Z" fill="#263238"/>
<path d="M197.869 250.323C197.876 250.721 197.765 251.112 197.549 251.447C197.334 251.781 197.023 252.044 196.658 252.202C196.292 252.359 195.888 252.404 195.497 252.331C195.105 252.258 194.745 252.07 194.461 251.792C194.176 251.513 193.982 251.156 193.901 250.766C193.821 250.376 193.858 249.971 194.009 249.603C194.159 249.234 194.416 248.919 194.747 248.697C195.077 248.475 195.466 248.356 195.864 248.356C196.125 248.353 196.384 248.401 196.626 248.498C196.869 248.595 197.089 248.74 197.276 248.922C197.462 249.105 197.61 249.323 197.712 249.563C197.814 249.804 197.867 250.062 197.869 250.323Z" fill="white"/>
<path d="M194.704 251.408C194.925 251.636 195.209 251.795 195.52 251.863C195.831 251.93 196.156 251.905 196.452 251.789C196.748 251.673 197.004 251.472 197.187 251.211C197.369 250.95 197.47 250.641 197.478 250.323C197.474 249.945 197.33 249.581 197.074 249.302C196.238 249.949 195.446 250.653 194.704 251.408Z" fill="#263238"/>
<path d="M205.723 250.323C205.731 250.721 205.62 251.112 205.404 251.447C205.188 251.781 204.878 252.044 204.512 252.202C204.147 252.359 203.743 252.404 203.351 252.331C202.96 252.258 202.599 252.07 202.315 251.792C202.031 251.513 201.836 251.156 201.756 250.766C201.675 250.376 201.713 249.971 201.863 249.603C202.014 249.234 202.271 248.919 202.601 248.697C202.932 248.475 203.321 248.356 203.719 248.356C203.98 248.353 204.239 248.401 204.481 248.498C204.723 248.595 204.944 248.74 205.13 248.922C205.316 249.105 205.465 249.323 205.567 249.563C205.668 249.804 205.722 250.062 205.723 250.323Z" fill="white"/>
<path d="M202.559 251.408C202.71 251.562 202.89 251.686 203.09 251.77C203.289 251.855 203.503 251.899 203.719 251.899C203.929 251.903 204.137 251.864 204.332 251.787C204.527 251.709 204.704 251.594 204.854 251.447C205.004 251.301 205.124 251.126 205.206 250.933C205.288 250.74 205.331 250.533 205.333 250.323C205.329 249.945 205.185 249.581 204.929 249.302C204.095 249.953 203.303 250.656 202.559 251.408Z" fill="#263238"/>
<path d="M103.575 262.818C103.585 263.216 103.476 263.609 103.262 263.945C103.048 264.281 102.738 264.546 102.373 264.705C102.008 264.865 101.603 264.912 101.211 264.84C100.819 264.769 100.457 264.582 100.172 264.303C99.8863 264.025 99.6903 263.668 99.6088 263.278C99.5273 262.888 99.5639 262.482 99.714 262.113C99.8642 261.744 100.121 261.428 100.452 261.205C100.782 260.983 101.172 260.864 101.57 260.863C101.83 260.86 102.088 260.908 102.33 261.004C102.571 261.101 102.791 261.244 102.977 261.425C103.164 261.607 103.312 261.823 103.415 262.062C103.517 262.301 103.572 262.558 103.575 262.818Z" fill="white"/>
<path d="M100.424 263.914C100.572 264.07 100.75 264.194 100.947 264.279C101.145 264.363 101.357 264.407 101.572 264.406C101.782 264.408 101.99 264.368 102.185 264.289C102.38 264.21 102.558 264.093 102.708 263.946C102.857 263.798 102.977 263.623 103.059 263.429C103.141 263.236 103.184 263.028 103.185 262.817C103.178 262.443 103.035 262.085 102.782 261.809C101.949 262.456 101.161 263.16 100.424 263.914Z" fill="#263238"/>
<path d="M111.443 262.818C111.456 263.219 111.348 263.615 111.134 263.955C110.92 264.295 110.61 264.563 110.243 264.726C109.875 264.888 109.468 264.937 109.072 264.867C108.677 264.796 108.312 264.609 108.023 264.33C107.735 264.05 107.536 263.691 107.453 263.298C107.37 262.905 107.406 262.496 107.557 262.124C107.708 261.752 107.966 261.433 108.299 261.208C108.632 260.984 109.024 260.864 109.426 260.863C109.952 260.857 110.46 261.058 110.838 261.425C111.215 261.791 111.433 262.291 111.443 262.818Z" fill="white"/>
<path d="M108.279 263.914C108.426 264.07 108.604 264.194 108.802 264.279C108.999 264.363 109.211 264.407 109.426 264.406C109.636 264.408 109.845 264.368 110.04 264.289C110.235 264.21 110.412 264.093 110.562 263.946C110.712 263.798 110.831 263.623 110.913 263.429C110.995 263.236 111.038 263.028 111.04 262.817C111.033 262.443 110.889 262.085 110.636 261.809C109.806 262.459 109.019 263.163 108.279 263.914Z" fill="#263238"/>
<path d="M119.298 262.818C119.311 263.22 119.203 263.616 118.988 263.956C118.774 264.297 118.463 264.565 118.095 264.727C117.727 264.889 117.318 264.937 116.923 264.866C116.527 264.794 116.162 264.606 115.874 264.325C115.586 264.044 115.388 263.684 115.307 263.29C115.225 262.896 115.263 262.487 115.416 262.115C115.568 261.743 115.828 261.425 116.163 261.202C116.498 260.979 116.891 260.861 117.294 260.863C117.553 260.86 117.812 260.908 118.053 261.004C118.294 261.101 118.514 261.244 118.701 261.425C118.887 261.607 119.035 261.823 119.138 262.062C119.24 262.301 119.295 262.558 119.298 262.818Z" fill="white"/>
<path d="M116.133 263.914C116.354 264.146 116.638 264.306 116.95 264.374C117.262 264.443 117.587 264.417 117.884 264.299C118.181 264.181 118.436 263.977 118.616 263.713C118.796 263.449 118.893 263.137 118.894 262.817C118.893 262.442 118.749 262.081 118.491 261.809C117.661 262.459 116.873 263.163 116.133 263.914Z" fill="#263238"/>
<path d="M127.152 262.818C127.162 263.216 127.053 263.609 126.839 263.945C126.625 264.281 126.316 264.546 125.95 264.705C125.585 264.865 125.18 264.912 124.788 264.84C124.396 264.769 124.034 264.582 123.749 264.303C123.463 264.025 123.267 263.668 123.186 263.278C123.104 262.888 123.141 262.482 123.291 262.113C123.441 261.744 123.698 261.428 124.029 261.205C124.359 260.983 124.749 260.864 125.148 260.863C125.408 260.86 125.666 260.908 125.907 261.004C126.148 261.101 126.369 261.244 126.555 261.425C126.741 261.607 126.889 261.823 126.992 262.062C127.094 262.301 127.149 262.558 127.152 262.818Z" fill="white"/>
<path d="M123.988 263.914C124.21 264.144 124.495 264.302 124.807 264.37C125.119 264.437 125.444 264.411 125.741 264.293C126.038 264.176 126.294 263.973 126.475 263.71C126.657 263.447 126.757 263.137 126.761 262.817C126.754 262.443 126.611 262.085 126.358 261.809C125.521 262.456 124.729 263.16 123.988 263.914Z" fill="#263238"/>
<path d="M135.007 262.818C135.017 263.216 134.908 263.609 134.694 263.945C134.48 264.281 134.17 264.546 133.805 264.705C133.439 264.865 133.035 264.912 132.643 264.84C132.251 264.769 131.889 264.582 131.603 264.303C131.318 264.025 131.122 263.668 131.04 263.278C130.959 262.888 130.996 262.482 131.146 262.113C131.296 261.744 131.553 261.428 131.883 261.205C132.214 260.983 132.603 260.864 133.002 260.863C133.262 260.86 133.52 260.908 133.761 261.004C134.003 261.101 134.223 261.244 134.409 261.425C134.595 261.607 134.744 261.823 134.846 262.062C134.949 262.301 135.003 262.558 135.007 262.818Z" fill="white"/>
<path d="M131.805 263.914C131.956 264.069 132.136 264.193 132.335 264.277C132.534 264.361 132.748 264.405 132.965 264.406C133.175 264.408 133.383 264.368 133.578 264.289C133.773 264.21 133.951 264.093 134.101 263.946C134.25 263.798 134.37 263.623 134.452 263.429C134.534 263.236 134.577 263.028 134.578 262.817C134.571 262.443 134.428 262.085 134.175 261.809C133.341 262.459 132.549 263.163 131.805 263.914Z" fill="#263238"/>
<path d="M142.861 262.818C142.871 263.216 142.762 263.609 142.548 263.945C142.334 264.281 142.025 264.546 141.659 264.705C141.294 264.865 140.889 264.912 140.497 264.84C140.105 264.769 139.743 264.582 139.458 264.303C139.172 264.025 138.976 263.668 138.895 263.278C138.813 262.888 138.85 262.482 139 262.113C139.15 261.744 139.407 261.428 139.738 261.205C140.068 260.983 140.458 260.864 140.857 260.863C141.116 260.86 141.375 260.908 141.616 261.004C141.857 261.101 142.077 261.244 142.264 261.425C142.45 261.607 142.598 261.823 142.701 262.062C142.803 262.301 142.858 262.558 142.861 262.818Z" fill="white"/>
<path d="M139.709 263.914C139.857 264.07 140.035 264.194 140.232 264.279C140.43 264.363 140.642 264.407 140.857 264.406C141.067 264.408 141.276 264.368 141.47 264.289C141.665 264.21 141.843 264.093 141.993 263.946C142.143 263.798 142.262 263.623 142.344 263.429C142.426 263.236 142.469 263.028 142.471 262.817C142.463 262.443 142.32 262.085 142.067 261.809C141.234 262.456 140.446 263.16 139.709 263.914Z" fill="#263238"/>
<path d="M150.716 262.818C150.728 263.219 150.621 263.615 150.407 263.955C150.193 264.295 149.882 264.563 149.515 264.726C149.148 264.888 148.74 264.937 148.345 264.867C147.95 264.796 147.584 264.609 147.296 264.33C147.007 264.05 146.809 263.691 146.726 263.298C146.643 262.905 146.679 262.496 146.829 262.124C146.98 261.752 147.238 261.433 147.571 261.208C147.904 260.984 148.297 260.864 148.698 260.863C149.225 260.857 149.732 261.058 150.11 261.425C150.488 261.791 150.706 262.291 150.716 262.818Z" fill="white"/>
<path d="M147.564 263.914C147.712 264.07 147.89 264.194 148.087 264.279C148.284 264.363 148.497 264.407 148.711 264.406C148.922 264.408 149.13 264.368 149.325 264.289C149.52 264.21 149.697 264.093 149.847 263.946C149.997 263.798 150.116 263.623 150.198 263.429C150.28 263.236 150.323 263.028 150.325 262.817C150.318 262.443 150.174 262.085 149.922 261.809C149.091 262.459 148.304 263.163 147.564 263.914Z" fill="#263238"/>
<path d="M158.584 262.818C158.594 263.216 158.485 263.609 158.271 263.945C158.057 264.281 157.747 264.546 157.382 264.705C157.017 264.865 156.612 264.912 156.22 264.84C155.828 264.769 155.466 264.582 155.181 264.303C154.895 264.025 154.699 263.668 154.618 263.278C154.536 262.888 154.573 262.482 154.723 262.113C154.873 261.744 155.13 261.428 155.46 261.205C155.791 260.983 156.181 260.864 156.579 260.863C156.839 260.86 157.097 260.908 157.339 261.004C157.58 261.101 157.8 261.244 157.986 261.425C158.172 261.607 158.321 261.823 158.424 262.062C158.526 262.301 158.581 262.558 158.584 262.818Z" fill="white"/>
<path d="M155.419 263.914C155.639 264.146 155.924 264.306 156.236 264.374C156.548 264.443 156.873 264.417 157.17 264.299C157.467 264.181 157.722 263.977 157.902 263.713C158.082 263.449 158.179 263.137 158.18 262.817C158.179 262.442 158.034 262.081 157.777 261.809C156.946 262.459 156.159 263.163 155.419 263.914Z" fill="#263238"/>
<path d="M166.438 262.818C166.448 263.216 166.339 263.609 166.125 263.945C165.911 264.281 165.601 264.546 165.236 264.705C164.871 264.865 164.466 264.912 164.074 264.84C163.682 264.769 163.32 264.582 163.035 264.303C162.749 264.025 162.553 263.668 162.472 263.278C162.39 262.888 162.427 262.482 162.577 262.113C162.727 261.744 162.984 261.428 163.314 261.205C163.645 260.983 164.035 260.864 164.433 260.863C164.693 260.86 164.951 260.908 165.193 261.004C165.434 261.101 165.654 261.244 165.84 261.425C166.026 261.607 166.175 261.823 166.278 262.062C166.38 262.301 166.435 262.558 166.438 262.818Z" fill="white"/>
<path d="M163.324 263.914C163.546 264.144 163.831 264.302 164.143 264.37C164.455 264.437 164.78 264.411 165.077 264.293C165.374 264.176 165.63 263.973 165.811 263.71C165.993 263.447 166.092 263.137 166.097 262.817C166.09 262.443 165.947 262.085 165.694 261.809C164.86 262.459 164.068 263.163 163.324 263.914Z" fill="#263238"/>
<path d="M174.292 262.818C174.302 263.216 174.193 263.609 173.979 263.945C173.765 264.281 173.456 264.546 173.09 264.705C172.725 264.865 172.321 264.912 171.928 264.84C171.536 264.769 171.174 264.582 170.889 264.303C170.604 264.025 170.408 263.668 170.326 263.278C170.245 262.888 170.281 262.482 170.431 262.113C170.581 261.744 170.838 261.428 171.169 261.205C171.5 260.983 171.889 260.864 172.288 260.863C172.548 260.86 172.806 260.908 173.047 261.004C173.289 261.101 173.509 261.244 173.695 261.425C173.881 261.607 174.03 261.823 174.132 262.062C174.235 262.301 174.289 262.558 174.292 262.818Z" fill="white"/>
<path d="M171.128 263.914C171.279 264.069 171.459 264.193 171.658 264.277C171.858 264.361 172.072 264.405 172.288 264.406C172.498 264.408 172.707 264.368 172.902 264.289C173.096 264.21 173.274 264.093 173.424 263.946C173.574 263.798 173.693 263.623 173.775 263.429C173.857 263.236 173.9 263.028 173.902 262.817C173.894 262.443 173.751 262.085 173.498 261.809C172.664 262.459 171.872 263.163 171.128 263.914Z" fill="#263238"/>
<path d="M182.147 262.818C182.157 263.216 182.048 263.609 181.834 263.945C181.62 264.281 181.311 264.546 180.945 264.705C180.58 264.865 180.176 264.912 179.783 264.84C179.391 264.769 179.029 264.582 178.744 264.303C178.459 264.025 178.263 263.668 178.181 263.278C178.1 262.888 178.136 262.482 178.286 262.113C178.436 261.744 178.693 261.428 179.024 261.205C179.355 260.983 179.744 260.864 180.143 260.863C180.403 260.86 180.661 260.908 180.902 261.004C181.144 261.101 181.364 261.244 181.55 261.425C181.736 261.607 181.884 261.823 181.987 262.062C182.09 262.301 182.144 262.558 182.147 262.818Z" fill="white"/>
<path d="M178.995 263.914C179.143 264.07 179.321 264.194 179.518 264.279C179.715 264.363 179.928 264.407 180.142 264.406C180.353 264.408 180.561 264.368 180.756 264.289C180.951 264.21 181.128 264.093 181.278 263.946C181.428 263.798 181.548 263.623 181.63 263.429C181.712 263.236 181.755 263.028 181.756 262.817C181.749 262.443 181.605 262.085 181.353 261.809C180.523 262.459 179.735 263.163 178.995 263.914Z" fill="#263238"/>
<path d="M190.014 262.818C190.027 263.22 189.919 263.616 189.705 263.956C189.49 264.297 189.179 264.565 188.811 264.727C188.443 264.889 188.035 264.937 187.639 264.866C187.243 264.794 186.878 264.606 186.59 264.325C186.302 264.044 186.105 263.684 186.023 263.29C185.941 262.896 185.979 262.487 186.132 262.115C186.284 261.743 186.545 261.425 186.879 261.202C187.214 260.979 187.608 260.861 188.01 260.863C188.27 260.86 188.528 260.908 188.769 261.004C189.011 261.101 189.231 261.244 189.417 261.425C189.603 261.607 189.752 261.823 189.854 262.062C189.957 262.301 190.011 262.558 190.014 262.818Z" fill="white"/>
<path d="M186.85 263.914C187.07 264.146 187.354 264.306 187.666 264.374C187.978 264.443 188.304 264.417 188.601 264.299C188.898 264.181 189.152 263.977 189.332 263.713C189.512 263.449 189.609 263.137 189.611 262.817C189.609 262.442 189.465 262.081 189.207 261.809C188.377 262.459 187.59 263.163 186.85 263.914Z" fill="#263238"/>
<path d="M197.868 262.818C197.878 263.216 197.77 263.609 197.555 263.945C197.341 264.281 197.032 264.546 196.667 264.705C196.301 264.865 195.897 264.912 195.505 264.84C195.112 264.769 194.751 264.582 194.465 264.303C194.18 264.025 193.984 263.668 193.902 263.278C193.821 262.888 193.857 262.482 194.007 262.113C194.158 261.744 194.414 261.428 194.745 261.205C195.076 260.983 195.465 260.864 195.864 260.863C196.124 260.86 196.382 260.908 196.623 261.004C196.865 261.101 197.085 261.244 197.271 261.425C197.457 261.607 197.606 261.823 197.708 262.062C197.811 262.301 197.865 262.558 197.868 262.818Z" fill="white"/>
<path d="M194.704 263.914C194.926 264.144 195.211 264.302 195.523 264.37C195.836 264.437 196.161 264.411 196.458 264.293C196.755 264.176 197.01 263.973 197.192 263.71C197.373 263.447 197.473 263.137 197.478 262.817C197.47 262.443 197.327 262.085 197.074 261.809C196.238 262.456 195.446 263.16 194.704 263.914Z" fill="#263238"/>
<path d="M205.723 262.818C205.733 263.216 205.624 263.609 205.41 263.945C205.196 264.281 204.886 264.546 204.521 264.705C204.156 264.865 203.751 264.912 203.359 264.84C202.967 264.769 202.605 264.582 202.32 264.303C202.034 264.025 201.838 263.668 201.757 263.278C201.675 262.888 201.712 262.482 201.862 262.113C202.012 261.744 202.269 261.428 202.6 261.205C202.93 260.983 203.32 260.864 203.718 260.863C203.978 260.86 204.236 260.908 204.478 261.004C204.719 261.101 204.939 261.244 205.125 261.425C205.312 261.607 205.46 261.823 205.563 262.062C205.665 262.301 205.72 262.558 205.723 262.818Z" fill="white"/>
<path d="M202.559 263.914C202.71 264.069 202.89 264.193 203.09 264.277C203.289 264.361 203.503 264.405 203.719 264.406C203.929 264.408 204.138 264.368 204.333 264.289C204.528 264.21 204.705 264.093 204.855 263.946C205.005 263.798 205.124 263.623 205.206 263.429C205.288 263.236 205.331 263.028 205.333 262.817C205.325 262.443 205.182 262.085 204.929 261.809C204.095 262.459 203.303 263.163 202.559 263.914Z" fill="#263238"/>
<path d="M292.78 250.323C292.787 250.721 292.676 251.112 292.461 251.447C292.245 251.781 291.935 252.044 291.569 252.202C291.203 252.359 290.799 252.404 290.408 252.331C290.017 252.258 289.656 252.07 289.372 251.792C289.088 251.513 288.893 251.156 288.812 250.766C288.732 250.376 288.769 249.971 288.92 249.603C289.07 249.234 289.327 248.919 289.658 248.697C289.988 248.475 290.377 248.356 290.775 248.356C291.036 248.353 291.295 248.401 291.538 248.498C291.78 248.595 292 248.74 292.187 248.922C292.373 249.105 292.521 249.323 292.623 249.563C292.725 249.804 292.778 250.062 292.78 250.323Z" fill="white"/>
<path d="M289.627 251.408C289.847 251.638 290.13 251.798 290.441 251.867C290.752 251.936 291.076 251.911 291.373 251.794C291.669 251.678 291.924 251.476 292.105 251.214C292.286 250.952 292.385 250.642 292.389 250.323C292.384 249.945 292.241 249.581 291.985 249.302C291.155 249.953 290.367 250.656 289.627 251.408Z" fill="#263238"/>
<path d="M300.647 250.323C300.657 250.724 300.547 251.12 300.331 251.458C300.115 251.797 299.802 252.063 299.434 252.223C299.066 252.383 298.658 252.43 298.263 252.357C297.868 252.284 297.504 252.095 297.217 251.813C296.931 251.532 296.734 251.172 296.654 250.778C296.573 250.385 296.612 249.976 296.765 249.605C296.918 249.233 297.178 248.916 297.513 248.694C297.847 248.471 298.24 248.354 298.642 248.356C298.903 248.353 299.162 248.401 299.404 248.498C299.647 248.595 299.867 248.74 300.054 248.922C300.24 249.105 300.388 249.323 300.49 249.563C300.592 249.804 300.645 250.062 300.647 250.323Z" fill="white"/>
<path d="M297.482 251.408C297.702 251.638 297.985 251.798 298.296 251.867C298.607 251.936 298.931 251.911 299.228 251.794C299.524 251.678 299.779 251.476 299.96 251.214C300.141 250.952 300.24 250.642 300.244 250.323C300.244 249.944 300.1 249.579 299.84 249.302C299.01 249.953 298.222 250.656 297.482 251.408Z" fill="#263238"/>
<path d="M308.502 250.323C308.509 250.721 308.398 251.112 308.182 251.447C307.967 251.781 307.656 252.044 307.291 252.202C306.925 252.359 306.521 252.404 306.13 252.331C305.738 252.258 305.378 252.07 305.093 251.792C304.809 251.513 304.615 251.156 304.534 250.766C304.454 250.376 304.491 249.971 304.642 249.603C304.792 249.234 305.049 248.919 305.379 248.697C305.71 248.475 306.099 248.356 306.497 248.356C306.758 248.353 307.017 248.401 307.259 248.498C307.502 248.595 307.722 248.74 307.908 248.922C308.095 249.105 308.243 249.323 308.345 249.563C308.447 249.804 308.5 250.062 308.502 250.323Z" fill="white"/>
<path d="M305.337 251.408C305.558 251.636 305.842 251.795 306.153 251.863C306.464 251.93 306.788 251.905 307.085 251.789C307.381 251.673 307.637 251.472 307.819 251.211C308.002 250.95 308.103 250.641 308.111 250.323C308.106 249.945 307.963 249.581 307.707 249.302C306.87 249.949 306.078 250.653 305.337 251.408Z" fill="#263238"/>
<path d="M316.356 250.323C316.364 250.721 316.252 251.112 316.037 251.447C315.821 251.781 315.511 252.044 315.145 252.202C314.78 252.359 314.375 252.404 313.984 252.331C313.593 252.258 313.232 252.07 312.948 251.792C312.664 251.513 312.469 251.156 312.389 250.766C312.308 250.376 312.346 249.971 312.496 249.603C312.647 249.234 312.903 248.919 313.234 248.697C313.564 248.475 313.953 248.356 314.351 248.356C314.612 248.353 314.872 248.401 315.114 248.498C315.356 248.595 315.577 248.74 315.763 248.922C315.949 249.105 316.098 249.323 316.199 249.563C316.301 249.804 316.354 250.062 316.356 250.323Z" fill="white"/>
<path d="M313.192 251.408C313.343 251.562 313.523 251.686 313.722 251.77C313.921 251.855 314.135 251.899 314.352 251.899C314.561 251.903 314.77 251.864 314.965 251.787C315.159 251.709 315.337 251.594 315.487 251.447C315.637 251.301 315.757 251.126 315.839 250.933C315.921 250.74 315.964 250.533 315.966 250.323C315.961 249.945 315.818 249.581 315.562 249.302C314.728 249.953 313.936 250.656 313.192 251.408Z" fill="#263238"/>
<path d="M324.211 250.323C324.218 250.721 324.107 251.112 323.891 251.447C323.676 251.781 323.365 252.044 323 252.202C322.634 252.359 322.23 252.404 321.839 252.331C321.447 252.258 321.087 252.07 320.802 251.792C320.518 251.513 320.324 251.156 320.243 250.766C320.163 250.376 320.2 249.971 320.351 249.603C320.501 249.234 320.758 248.919 321.088 248.697C321.419 248.475 321.808 248.356 322.206 248.356C322.467 248.353 322.726 248.401 322.968 248.498C323.21 248.595 323.431 248.74 323.617 248.922C323.804 249.105 323.952 249.323 324.054 249.563C324.156 249.804 324.209 250.062 324.211 250.323Z" fill="white"/>
<path d="M321.059 251.408C321.278 251.638 321.561 251.798 321.872 251.867C322.183 251.936 322.508 251.911 322.804 251.794C323.1 251.678 323.355 251.476 323.536 251.214C323.717 250.952 323.816 250.642 323.82 250.323C323.815 249.945 323.672 249.581 323.416 249.302C322.583 249.949 321.796 250.653 321.059 251.408Z" fill="#263238"/>
<path d="M332.078 250.323C332.088 250.724 331.979 251.119 331.763 251.457C331.548 251.795 331.236 252.062 330.869 252.222C330.501 252.383 330.094 252.43 329.699 252.358C329.305 252.286 328.941 252.098 328.653 251.818C328.366 251.538 328.169 251.178 328.087 250.786C328.005 250.393 328.042 249.985 328.193 249.614C328.344 249.242 328.603 248.924 328.935 248.7C329.268 248.476 329.66 248.356 330.061 248.356C330.323 248.353 330.582 248.401 330.825 248.498C331.068 248.595 331.29 248.739 331.477 248.922C331.664 249.104 331.814 249.322 331.917 249.563C332.02 249.803 332.075 250.061 332.078 250.323Z" fill="white"/>
<path d="M328.914 251.408C329.134 251.638 329.417 251.798 329.728 251.867C330.039 251.936 330.363 251.911 330.659 251.794C330.956 251.678 331.211 251.476 331.392 251.214C331.573 250.952 331.671 250.642 331.675 250.323C331.671 249.945 331.527 249.581 331.272 249.302C330.441 249.953 329.654 250.656 328.914 251.408Z" fill="#263238"/>
<path d="M339.933 250.323C339.943 250.724 339.833 251.12 339.617 251.458C339.401 251.797 339.089 252.063 338.72 252.223C338.352 252.383 337.944 252.43 337.549 252.357C337.154 252.284 336.79 252.095 336.503 251.813C336.217 251.532 336.021 251.172 335.94 250.778C335.859 250.385 335.898 249.976 336.051 249.605C336.204 249.233 336.465 248.916 336.799 248.694C337.133 248.471 337.527 248.354 337.928 248.356C338.189 248.353 338.448 248.401 338.69 248.498C338.933 248.595 339.153 248.74 339.34 248.922C339.526 249.105 339.674 249.323 339.776 249.563C339.878 249.804 339.931 250.062 339.933 250.323Z" fill="white"/>
<path d="M336.769 251.408C336.988 251.638 337.271 251.798 337.582 251.867C337.893 251.936 338.217 251.911 338.514 251.794C338.81 251.678 339.065 251.476 339.246 251.214C339.427 250.952 339.526 250.642 339.53 250.323C339.53 249.944 339.386 249.579 339.126 249.302C338.296 249.953 337.508 250.656 336.769 251.408Z" fill="#263238"/>
<path d="M347.788 250.323C347.795 250.721 347.684 251.112 347.468 251.447C347.253 251.781 346.942 252.044 346.577 252.202C346.211 252.359 345.807 252.404 345.416 252.331C345.024 252.258 344.664 252.07 344.38 251.792C344.095 251.513 343.901 251.156 343.82 250.766C343.74 250.376 343.777 249.971 343.928 249.603C344.078 249.234 344.335 248.919 344.666 248.697C344.996 248.475 345.385 248.356 345.783 248.356C346.044 248.353 346.303 248.401 346.545 248.498C346.788 248.595 347.008 248.74 347.195 248.922C347.381 249.105 347.529 249.323 347.631 249.563C347.733 249.804 347.786 250.062 347.788 250.323Z" fill="white"/>
<path d="M344.623 251.408C344.844 251.636 345.128 251.795 345.439 251.863C345.75 251.93 346.074 251.905 346.371 251.789C346.667 251.673 346.923 251.472 347.105 251.211C347.288 250.95 347.389 250.641 347.397 250.323C347.392 249.945 347.249 249.581 346.993 249.302C346.156 249.949 345.364 250.653 344.623 251.408Z" fill="#263238"/>
<path d="M355.642 250.323C355.65 250.721 355.539 251.112 355.323 251.447C355.107 251.781 354.797 252.044 354.431 252.202C354.066 252.359 353.662 252.404 353.27 252.331C352.879 252.258 352.518 252.07 352.234 251.792C351.95 251.513 351.755 251.156 351.675 250.766C351.594 250.376 351.632 249.971 351.782 249.603C351.933 249.234 352.19 248.919 352.52 248.697C352.85 248.475 353.24 248.356 353.638 248.356C353.899 248.353 354.158 248.401 354.4 248.498C354.642 248.595 354.863 248.74 355.049 248.922C355.235 249.105 355.384 249.323 355.486 249.563C355.587 249.804 355.641 250.062 355.642 250.323Z" fill="white"/>
<path d="M352.439 251.408C352.59 251.562 352.771 251.686 352.97 251.77C353.169 251.855 353.383 251.899 353.599 251.899C353.809 251.903 354.017 251.864 354.212 251.787C354.407 251.709 354.585 251.594 354.735 251.447C354.885 251.301 355.004 251.126 355.086 250.933C355.168 250.74 355.212 250.533 355.213 250.323C355.209 249.945 355.065 249.581 354.81 249.302C353.976 249.953 353.184 250.656 352.439 251.408Z" fill="#263238"/>
<path d="M363.496 250.323C363.504 250.721 363.393 251.112 363.177 251.447C362.962 251.781 362.651 252.044 362.286 252.202C361.92 252.359 361.516 252.404 361.124 252.331C360.733 252.258 360.372 252.07 360.088 251.792C359.804 251.513 359.609 251.156 359.529 250.766C359.448 250.376 359.486 249.971 359.636 249.603C359.787 249.234 360.044 248.919 360.374 248.697C360.705 248.475 361.094 248.356 361.492 248.356C361.753 248.353 362.012 248.401 362.254 248.498C362.496 248.595 362.717 248.74 362.903 248.922C363.09 249.105 363.238 249.323 363.34 249.563C363.442 249.804 363.495 250.062 363.496 250.323Z" fill="white"/>
<path d="M360.344 251.408C360.564 251.638 360.847 251.798 361.158 251.867C361.469 251.936 361.793 251.911 362.09 251.794C362.386 251.678 362.641 251.476 362.822 251.214C363.003 250.952 363.102 250.642 363.106 250.323C363.101 249.945 362.958 249.581 362.702 249.302C361.869 249.949 361.081 250.653 360.344 251.408Z" fill="#263238"/>
<path d="M371.351 250.323C371.361 250.724 371.252 251.119 371.036 251.457C370.821 251.795 370.509 252.062 370.142 252.222C369.774 252.383 369.367 252.43 368.972 252.358C368.578 252.286 368.214 252.098 367.926 251.818C367.639 251.538 367.442 251.178 367.36 250.786C367.278 250.393 367.315 249.985 367.466 249.614C367.617 249.242 367.875 248.924 368.208 248.7C368.541 248.476 368.933 248.356 369.334 248.356C369.596 248.353 369.855 248.401 370.098 248.498C370.341 248.595 370.563 248.739 370.75 248.922C370.937 249.104 371.087 249.322 371.19 249.563C371.293 249.803 371.348 250.061 371.351 250.323Z" fill="white"/>
<path d="M368.2 251.408C368.419 251.638 368.702 251.798 369.013 251.867C369.324 251.936 369.649 251.911 369.945 251.794C370.241 251.678 370.496 251.476 370.677 251.214C370.858 250.952 370.957 250.642 370.961 250.323C370.957 249.945 370.813 249.581 370.557 249.302C369.727 249.953 368.94 250.656 368.2 251.408Z" fill="#263238"/>
<path d="M379.218 250.323C379.226 250.721 379.115 251.112 378.899 251.447C378.683 251.781 378.373 252.044 378.007 252.202C377.642 252.359 377.238 252.404 376.846 252.331C376.455 252.258 376.094 252.07 375.81 251.792C375.526 251.513 375.331 251.156 375.251 250.766C375.17 250.376 375.208 249.971 375.358 249.603C375.509 249.234 375.766 248.919 376.096 248.697C376.427 248.475 376.816 248.356 377.214 248.356C377.475 248.353 377.734 248.401 377.976 248.498C378.218 248.595 378.439 248.74 378.625 248.922C378.812 249.105 378.96 249.323 379.062 249.563C379.163 249.804 379.217 250.062 379.218 250.323Z" fill="white"/>
<path d="M376.054 251.408C376.204 251.563 376.385 251.687 376.584 251.771C376.783 251.856 376.997 251.899 377.214 251.899C377.422 251.901 377.629 251.861 377.823 251.783C378.016 251.705 378.192 251.589 378.341 251.443C378.49 251.297 378.608 251.122 378.689 250.93C378.771 250.738 378.813 250.532 378.815 250.323C378.816 249.944 378.671 249.579 378.412 249.302C377.581 249.953 376.794 250.656 376.054 251.408Z" fill="#263238"/>
<path d="M387.073 250.323C387.08 250.721 386.969 251.112 386.754 251.447C386.538 251.781 386.228 252.044 385.862 252.202C385.496 252.359 385.092 252.404 384.701 252.331C384.31 252.258 383.949 252.07 383.665 251.792C383.381 251.513 383.186 251.156 383.105 250.766C383.025 250.376 383.062 249.971 383.213 249.603C383.363 249.234 383.62 248.919 383.951 248.697C384.281 248.475 384.67 248.356 385.068 248.356C385.329 248.353 385.588 248.401 385.831 248.498C386.073 248.595 386.293 248.74 386.48 248.922C386.666 249.105 386.814 249.323 386.916 249.563C387.018 249.804 387.071 250.062 387.073 250.323Z" fill="white"/>
<path d="M383.959 251.408C384.18 251.636 384.464 251.795 384.775 251.863C385.087 251.93 385.411 251.905 385.707 251.789C386.004 251.673 386.259 251.472 386.442 251.211C386.624 250.95 386.726 250.641 386.733 250.323C386.729 249.945 386.585 249.581 386.329 249.302C385.495 249.953 384.704 250.656 383.959 251.408Z" fill="#263238"/>
<path d="M394.928 250.323C394.935 250.721 394.824 251.112 394.608 251.447C394.393 251.781 394.082 252.044 393.717 252.202C393.351 252.359 392.947 252.404 392.556 252.331C392.164 252.258 391.804 252.07 391.519 251.792C391.235 251.513 391.041 251.156 390.96 250.766C390.88 250.376 390.917 249.971 391.068 249.603C391.218 249.234 391.475 248.919 391.805 248.697C392.136 248.475 392.525 248.356 392.923 248.356C393.184 248.353 393.443 248.401 393.685 248.498C393.928 248.595 394.148 248.74 394.334 248.922C394.521 249.105 394.669 249.323 394.771 249.563C394.873 249.804 394.926 250.062 394.928 250.323Z" fill="white"/>
<path d="M391.763 251.408C391.914 251.562 392.094 251.686 392.294 251.77C392.493 251.855 392.707 251.899 392.923 251.899C393.133 251.903 393.341 251.864 393.536 251.787C393.731 251.709 393.908 251.594 394.058 251.447C394.208 251.301 394.328 251.126 394.41 250.933C394.492 250.74 394.535 250.533 394.537 250.323C394.533 249.945 394.389 249.581 394.133 249.302C393.299 249.953 392.508 250.656 391.763 251.408Z" fill="#263238"/>
<path d="M292.78 262.818C292.79 263.216 292.681 263.609 292.467 263.945C292.253 264.281 291.943 264.546 291.578 264.705C291.213 264.865 290.808 264.912 290.416 264.84C290.024 264.769 289.662 264.582 289.377 264.303C289.091 264.025 288.895 263.668 288.814 263.278C288.732 262.888 288.769 262.482 288.919 262.113C289.069 261.744 289.326 261.428 289.657 261.205C289.987 260.983 290.377 260.864 290.775 260.863C291.035 260.86 291.293 260.908 291.535 261.004C291.776 261.101 291.996 261.244 292.183 261.425C292.369 261.607 292.517 261.823 292.62 262.062C292.722 262.301 292.777 262.558 292.78 262.818Z" fill="white"/>
<path d="M289.627 263.914C289.775 264.07 289.953 264.194 290.15 264.279C290.348 264.363 290.56 264.407 290.775 264.406C290.985 264.408 291.194 264.368 291.388 264.289C291.583 264.21 291.761 264.093 291.911 263.946C292.061 263.798 292.18 263.623 292.262 263.429C292.344 263.236 292.387 263.028 292.389 262.817C292.381 262.443 292.238 262.085 291.985 261.809C291.155 262.459 290.367 263.163 289.627 263.914Z" fill="#263238"/>
<path d="M300.647 262.818C300.659 263.22 300.551 263.616 300.337 263.956C300.123 264.297 299.811 264.565 299.443 264.727C299.075 264.889 298.667 264.937 298.271 264.866C297.876 264.794 297.51 264.606 297.222 264.325C296.934 264.044 296.737 263.684 296.655 263.29C296.574 262.896 296.612 262.487 296.764 262.115C296.917 261.743 297.177 261.425 297.512 261.202C297.846 260.979 298.24 260.861 298.642 260.863C298.902 260.86 299.16 260.908 299.402 261.004C299.643 261.101 299.863 261.244 300.049 261.425C300.235 261.607 300.384 261.823 300.486 262.062C300.589 262.301 300.643 262.558 300.647 262.818Z" fill="white"/>
<path d="M297.482 263.914C297.703 264.146 297.987 264.306 298.299 264.374C298.611 264.443 298.937 264.417 299.233 264.299C299.53 264.181 299.785 263.977 299.965 263.713C300.145 263.449 300.242 263.137 300.244 262.817C300.242 262.442 300.098 262.081 299.84 261.809C299.01 262.459 298.222 263.163 297.482 263.914Z" fill="#263238"/>
<path d="M308.501 262.818C308.511 263.216 308.402 263.609 308.188 263.945C307.974 264.281 307.665 264.546 307.299 264.705C306.934 264.865 306.53 264.912 306.137 264.84C305.745 264.769 305.383 264.582 305.098 264.303C304.813 264.025 304.617 263.668 304.535 263.278C304.454 262.888 304.49 262.482 304.64 262.113C304.79 261.744 305.047 261.428 305.378 261.205C305.709 260.983 306.098 260.864 306.497 260.863C306.757 260.86 307.015 260.908 307.256 261.004C307.498 261.101 307.718 261.244 307.904 261.425C308.09 261.607 308.238 261.823 308.341 262.062C308.444 262.301 308.498 262.558 308.501 262.818Z" fill="white"/>
<path d="M305.337 263.914C305.559 264.144 305.844 264.302 306.156 264.37C306.468 264.437 306.793 264.411 307.09 264.293C307.387 264.176 307.643 263.973 307.824 263.71C308.006 263.447 308.106 263.137 308.111 262.817C308.103 262.443 307.96 262.085 307.707 261.809C306.87 262.456 306.078 263.16 305.337 263.914Z" fill="#263238"/>
<path d="M316.356 262.818C316.366 263.216 316.257 263.609 316.043 263.945C315.829 264.281 315.519 264.546 315.154 264.705C314.789 264.865 314.384 264.912 313.992 264.84C313.6 264.769 313.238 264.582 312.952 264.303C312.667 264.025 312.471 263.668 312.39 263.278C312.308 262.888 312.345 262.482 312.495 262.113C312.645 261.744 312.902 261.428 313.232 261.205C313.563 260.983 313.953 260.864 314.351 260.863C314.611 260.86 314.869 260.908 315.111 261.004C315.352 261.101 315.572 261.244 315.758 261.425C315.944 261.607 316.093 261.823 316.196 262.062C316.298 262.301 316.353 262.558 316.356 262.818Z" fill="white"/>
<path d="M313.192 263.914C313.343 264.069 313.523 264.193 313.722 264.277C313.921 264.361 314.135 264.405 314.352 264.406C314.562 264.408 314.771 264.368 314.966 264.289C315.16 264.21 315.338 264.093 315.488 263.946C315.638 263.798 315.757 263.623 315.839 263.429C315.921 263.236 315.964 263.028 315.966 262.817C315.958 262.443 315.815 262.085 315.562 261.809C314.728 262.459 313.936 263.163 313.192 263.914Z" fill="#263238"/>
<path d="M324.21 262.818C324.22 263.216 324.111 263.609 323.897 263.945C323.683 264.281 323.374 264.546 323.008 264.705C322.643 264.865 322.239 264.912 321.846 264.84C321.454 264.769 321.092 264.582 320.807 264.303C320.522 264.025 320.326 263.668 320.244 263.278C320.163 262.888 320.199 262.482 320.349 262.113C320.499 261.744 320.756 261.428 321.087 261.205C321.418 260.983 321.807 260.864 322.206 260.863C322.466 260.86 322.724 260.908 322.965 261.004C323.207 261.101 323.427 261.244 323.613 261.425C323.799 261.607 323.947 261.823 324.05 262.062C324.153 262.301 324.207 262.558 324.21 262.818Z" fill="white"/>
<path d="M321.059 263.914C321.206 264.07 321.384 264.194 321.582 264.279C321.779 264.363 321.991 264.407 322.206 264.406C322.416 264.408 322.625 264.368 322.82 264.289C323.015 264.21 323.192 264.093 323.342 263.946C323.492 263.798 323.611 263.623 323.693 263.429C323.775 263.236 323.818 263.028 323.82 262.817C323.812 262.443 323.669 262.085 323.416 261.809C322.583 262.456 321.796 263.16 321.059 263.914Z" fill="#263238"/>
<path d="M332.078 262.818C332.091 263.219 331.983 263.615 331.769 263.955C331.556 264.295 331.245 264.563 330.878 264.726C330.511 264.888 330.103 264.937 329.708 264.867C329.312 264.796 328.947 264.609 328.659 264.33C328.37 264.05 328.172 263.691 328.089 263.298C328.005 262.905 328.042 262.496 328.192 262.124C328.343 261.752 328.601 261.433 328.934 261.208C329.267 260.984 329.66 260.864 330.061 260.863C330.587 260.857 331.095 261.058 331.473 261.425C331.851 261.791 332.068 262.291 332.078 262.818Z" fill="white"/>
<path d="M328.914 263.914C329.062 264.07 329.24 264.194 329.437 264.279C329.634 264.363 329.847 264.407 330.061 264.406C330.272 264.408 330.48 264.368 330.675 264.289C330.87 264.21 331.047 264.093 331.197 263.946C331.347 263.798 331.466 263.623 331.548 263.429C331.63 263.236 331.674 263.028 331.675 262.817C331.668 262.443 331.524 262.085 331.272 261.809C330.441 262.459 329.654 263.163 328.914 263.914Z" fill="#263238"/>
<path d="M339.933 262.818C339.945 263.22 339.838 263.616 339.623 263.956C339.409 264.297 339.097 264.565 338.729 264.727C338.361 264.889 337.953 264.937 337.558 264.866C337.162 264.794 336.797 264.606 336.509 264.325C336.221 264.044 336.023 263.684 335.941 263.29C335.86 262.896 335.898 262.487 336.05 262.115C336.203 261.743 336.463 261.425 336.798 261.202C337.132 260.979 337.526 260.861 337.928 260.863C338.188 260.86 338.446 260.908 338.688 261.004C338.929 261.101 339.149 261.244 339.335 261.425C339.522 261.607 339.67 261.823 339.773 262.062C339.875 262.301 339.93 262.558 339.933 262.818Z" fill="white"/>
<path d="M336.769 263.914C336.989 264.146 337.273 264.306 337.585 264.374C337.897 264.443 338.223 264.417 338.52 264.299C338.817 264.181 339.071 263.977 339.251 263.713C339.431 263.449 339.528 263.137 339.53 262.817C339.528 262.442 339.384 262.081 339.126 261.809C338.296 262.459 337.508 263.163 336.769 263.914Z" fill="#263238"/>
<path d="M347.787 262.818C347.797 263.216 347.688 263.609 347.474 263.945C347.26 264.281 346.951 264.546 346.586 264.705C346.22 264.865 345.816 264.912 345.424 264.84C345.031 264.769 344.67 264.582 344.384 264.303C344.099 264.025 343.903 263.668 343.821 263.278C343.74 262.888 343.776 262.482 343.926 262.113C344.077 261.744 344.333 261.428 344.664 261.205C344.995 260.983 345.384 260.864 345.783 260.863C346.043 260.86 346.301 260.908 346.542 261.004C346.784 261.101 347.004 261.244 347.19 261.425C347.376 261.607 347.525 261.823 347.627 262.062C347.73 262.301 347.784 262.558 347.787 262.818Z" fill="white"/>
<path d="M344.623 263.914C344.845 264.144 345.13 264.302 345.442 264.37C345.754 264.437 346.079 264.411 346.376 264.293C346.673 264.176 346.929 263.973 347.11 263.71C347.292 263.447 347.392 263.137 347.397 262.817C347.389 262.443 347.246 262.085 346.993 261.809C346.156 262.456 345.364 263.16 344.623 263.914Z" fill="#263238"/>
<path d="M355.642 262.818C355.652 263.216 355.543 263.609 355.329 263.945C355.115 264.281 354.805 264.546 354.44 264.705C354.075 264.865 353.67 264.912 353.278 264.84C352.886 264.769 352.524 264.582 352.239 264.303C351.953 264.025 351.757 263.668 351.676 263.278C351.594 262.888 351.631 262.482 351.781 262.113C351.931 261.744 352.188 261.428 352.519 261.205C352.849 260.983 353.239 260.864 353.637 260.863C353.897 260.86 354.155 260.908 354.397 261.004C354.638 261.101 354.858 261.244 355.044 261.425C355.231 261.607 355.379 261.823 355.482 262.062C355.584 262.301 355.639 262.558 355.642 262.818Z" fill="white"/>
<path d="M352.439 263.914C352.59 264.069 352.771 264.193 352.97 264.277C353.169 264.361 353.383 264.405 353.599 264.406C353.81 264.408 354.018 264.368 354.213 264.289C354.408 264.21 354.585 264.093 354.735 263.946C354.885 263.798 355.004 263.623 355.086 263.429C355.168 263.236 355.212 263.028 355.213 262.817C355.206 262.443 355.062 262.085 354.81 261.809C353.976 262.459 353.184 263.163 352.439 263.914Z" fill="#263238"/>
<path d="M363.496 262.818C363.506 263.216 363.397 263.609 363.183 263.945C362.969 264.281 362.66 264.546 362.294 264.705C361.929 264.865 361.524 264.912 361.132 264.84C360.74 264.769 360.378 264.582 360.093 264.303C359.807 264.025 359.611 263.668 359.53 263.278C359.448 262.888 359.485 262.482 359.635 262.113C359.785 261.744 360.042 261.428 360.373 261.205C360.703 260.983 361.093 260.864 361.492 260.863C361.751 260.86 362.01 260.908 362.251 261.004C362.492 261.101 362.712 261.244 362.899 261.425C363.085 261.607 363.233 261.823 363.336 262.062C363.438 262.301 363.493 262.558 363.496 262.818Z" fill="white"/>
<path d="M360.344 263.914C360.492 264.07 360.67 264.194 360.867 264.279C361.065 264.363 361.277 264.407 361.492 264.406C361.702 264.408 361.911 264.368 362.106 264.289C362.3 264.21 362.478 264.093 362.628 263.946C362.778 263.798 362.897 263.623 362.979 263.429C363.061 263.236 363.104 263.028 363.106 262.817C363.098 262.443 362.955 262.085 362.702 261.809C361.869 262.456 361.081 263.16 360.344 263.914Z" fill="#263238"/>
<path d="M371.351 262.818C371.364 263.219 371.256 263.615 371.042 263.955C370.829 264.295 370.518 264.563 370.151 264.726C369.783 264.888 369.376 264.937 368.981 264.867C368.585 264.796 368.22 264.609 367.932 264.33C367.643 264.05 367.445 263.691 367.362 263.298C367.278 262.905 367.315 262.496 367.465 262.124C367.616 261.752 367.874 261.433 368.207 261.208C368.54 260.984 368.933 260.864 369.334 260.863C369.86 260.857 370.368 261.058 370.746 261.425C371.124 261.791 371.341 262.291 371.351 262.818Z" fill="white"/>
<path d="M368.2 263.914C368.347 264.07 368.525 264.194 368.723 264.279C368.92 264.363 369.132 264.407 369.347 264.406C369.557 264.408 369.766 264.368 369.961 264.289C370.156 264.21 370.333 264.093 370.483 263.946C370.633 263.798 370.752 263.623 370.834 263.429C370.916 263.236 370.959 263.028 370.961 262.817C370.953 262.443 370.81 262.085 370.557 261.809C369.727 262.459 368.94 263.163 368.2 263.914Z" fill="#263238"/>
<path d="M379.218 262.818C379.228 263.216 379.119 263.609 378.905 263.945C378.691 264.281 378.381 264.546 378.016 264.705C377.651 264.865 377.246 264.912 376.854 264.84C376.462 264.769 376.1 264.582 375.815 264.303C375.529 264.025 375.333 263.668 375.252 263.278C375.17 262.888 375.207 262.482 375.357 262.113C375.507 261.744 375.764 261.428 376.095 261.205C376.425 260.983 376.815 260.864 377.213 260.863C377.473 260.86 377.731 260.908 377.973 261.004C378.214 261.101 378.434 261.244 378.621 261.425C378.807 261.607 378.955 261.823 379.058 262.062C379.16 262.301 379.215 262.558 379.218 262.818Z" fill="white"/>
<path d="M376.054 263.914C376.274 264.146 376.559 264.306 376.871 264.374C377.183 264.443 377.508 264.417 377.805 264.299C378.102 264.181 378.357 263.977 378.537 263.713C378.717 263.449 378.814 263.137 378.815 262.817C378.814 262.442 378.669 262.081 378.412 261.809C377.581 262.459 376.794 263.163 376.054 263.914Z" fill="#263238"/>
<path d="M387.073 262.818C387.083 263.216 386.974 263.609 386.76 263.945C386.546 264.281 386.236 264.546 385.871 264.705C385.506 264.865 385.101 264.912 384.709 264.84C384.317 264.769 383.955 264.582 383.67 264.303C383.384 264.025 383.188 263.668 383.107 263.278C383.025 262.888 383.062 262.482 383.212 262.113C383.362 261.744 383.619 261.428 383.949 261.205C384.28 260.983 384.67 260.864 385.068 260.863C385.328 260.86 385.586 260.908 385.828 261.004C386.069 261.101 386.289 261.244 386.475 261.425C386.661 261.607 386.81 261.823 386.913 262.062C387.015 262.301 387.07 262.558 387.073 262.818Z" fill="white"/>
<path d="M383.959 263.914C384.181 264.144 384.466 264.302 384.778 264.37C385.091 264.437 385.416 264.411 385.713 264.293C386.01 264.176 386.265 263.973 386.447 263.71C386.628 263.447 386.728 263.137 386.733 262.817C386.726 262.443 386.582 262.085 386.329 261.809C385.495 262.459 384.704 263.163 383.959 263.914Z" fill="#263238"/>
<path d="M394.928 262.818C394.938 263.216 394.829 263.609 394.615 263.945C394.401 264.281 394.091 264.546 393.726 264.705C393.361 264.865 392.956 264.912 392.564 264.84C392.172 264.769 391.81 264.582 391.524 264.303C391.239 264.025 391.043 263.668 390.962 263.278C390.88 262.888 390.917 262.482 391.067 262.113C391.217 261.744 391.474 261.428 391.804 261.205C392.135 260.983 392.525 260.864 392.923 260.863C393.183 260.86 393.441 260.908 393.683 261.004C393.924 261.101 394.144 261.244 394.33 261.425C394.516 261.607 394.665 261.823 394.768 262.062C394.87 262.301 394.925 262.558 394.928 262.818Z" fill="white"/>
<path d="M391.763 263.914C391.914 264.069 392.094 264.193 392.294 264.277C392.493 264.361 392.707 264.405 392.923 264.406C393.133 264.408 393.342 264.368 393.537 264.289C393.732 264.21 393.909 264.093 394.059 263.946C394.209 263.798 394.328 263.623 394.41 263.429C394.492 263.236 394.535 263.028 394.537 262.817C394.53 262.443 394.386 262.085 394.133 261.809C393.299 262.459 392.508 263.163 391.763 263.914Z" fill="#263238"/>
<path d="M278.571 240.628H217.789C216.469 240.628 215.201 240.111 214.258 239.187C213.315 238.263 212.772 237.006 212.746 235.686V207.646C212.746 188.52 228.644 172.95 248.186 172.95C267.728 172.95 283.639 188.52 283.639 207.646V235.686C283.613 237.01 283.066 238.271 282.118 239.196C281.17 240.12 279.896 240.635 278.571 240.628ZM222.832 230.794H273.515V207.646C273.515 200.925 270.845 194.479 266.093 189.727C261.34 184.975 254.895 182.305 248.174 182.305C241.453 182.305 235.007 184.975 230.255 189.727C225.502 194.479 222.832 200.925 222.832 207.646V230.794Z" fill="white" stroke="#263238" stroke-linecap="round" stroke-linejoin="round"/>
<path d="M286.363 227.112H208.977V291.134H286.363V227.112Z" fill="#008080" stroke="#263238" stroke-linecap="round" stroke-linejoin="round"/>
<path d="M255.726 253.702C255.641 251.523 254.717 249.461 253.145 247.95C251.574 246.438 249.478 245.593 247.297 245.593C245.117 245.593 243.021 246.438 241.45 247.95C239.878 249.461 238.953 251.523 238.869 253.702C238.876 255.2 239.292 256.669 240.072 257.948C240.851 259.228 241.966 260.271 243.294 260.964L241.882 275.501H252.712L251.3 260.964C252.629 260.271 253.743 259.228 254.523 257.948C255.303 256.669 255.719 255.2 255.726 253.702Z" fill="#263238" stroke="#263238" stroke-linecap="round" stroke-linejoin="round"/>
</svg>
