<svg width="897" height="551" viewBox="0 0 897 551" fill="none" xmlns="http://www.w3.org/2000/svg">
<path opacity="0.1" d="M897 353.909C897.015 368.838 895.207 383.713 891.616 398.205C890.407 403.088 889.003 407.87 887.404 412.55C885.447 418.327 883.18 423.994 880.611 429.526C879.316 432.325 877.948 435.069 876.506 437.756C876.53 453.065 873.374 468.213 867.238 482.243C856.146 507.414 836.368 527.766 811.507 539.591C795.963 546.998 778.976 550.893 761.754 551H170.293C143.978 551.056 118.117 544.151 95.3401 530.989L94.9898 530.791C91.7455 528.894 88.5825 526.887 85.5007 524.767C78.5668 519.983 72.0523 514.619 66.0275 508.734C57.873 500.775 50.6875 491.883 44.62 482.243C30.3696 459.644 22.8204 433.476 22.8469 406.77C8.41528 381.48 0 351.186 0 318.633C0 277.561 13.3731 240.095 35.3442 211.732C39.9247 205.807 44.9422 200.232 50.3546 195.053C55.6949 189.928 61.4349 185.236 67.5202 181.02C72.3889 177.643 77.4772 174.594 82.7515 171.893C84.9524 170.775 87.1609 169.718 89.4075 168.736C91.38 167.862 93.3753 167.048 95.3934 166.28C97.8152 165.362 100.267 164.518 102.75 163.747C105.233 162.976 107.683 162.302 110.099 161.724C113.653 160.857 117.268 160.152 120.944 159.609C123.99 159.161 127.036 158.849 130.083 158.613C132.504 158.43 134.949 158.332 137.409 158.301H138.742C141.453 158.301 144.149 158.408 146.822 158.59C147.104 158.027 147.408 157.457 147.69 156.902C148.756 154.871 149.86 152.848 150.972 150.87C150.97 150.853 150.97 150.835 150.972 150.817C151.163 150.467 151.353 150.125 151.551 149.79C152.45 148.17 153.386 146.565 154.346 144.976C154.788 144.215 155.222 143.5 155.671 142.785C155.766 142.608 155.87 142.435 155.983 142.268C156.44 141.507 156.905 140.747 157.377 139.986C159.728 136.234 162.172 132.548 164.711 128.927L165.358 127.999C165.754 127.437 166.12 126.889 166.562 126.326C167.612 124.858 168.694 123.383 169.783 121.938C170.544 120.903 171.306 119.876 172.129 118.895C174.109 116.36 176.139 113.825 178.221 111.289C180.303 108.754 182.466 106.252 184.71 103.782C185.014 103.44 185.319 103.105 185.639 102.771L188.891 99.2264C189.05 99.0591 189.188 98.907 189.34 98.7549C189.728 98.3365 190.101 97.9182 190.52 97.5151C192.264 95.6669 194.054 93.8567 195.851 92.0541C204.998 82.9555 214.742 74.4765 225.019 66.6733C225.423 66.3539 225.834 66.0496 226.238 65.7454C228.172 64.2927 230.137 62.8552 232.102 61.4405C242.909 53.6973 254.206 46.6599 265.923 40.3722C266.73 39.9083 267.552 39.4748 268.383 39.0488C278.887 33.4989 289.689 28.5323 300.741 24.1718C306.765 21.7911 312.926 19.555 319.125 17.509C323.253 16.1552 327.396 14.8698 331.592 13.6604C338.152 11.7742 344.757 10.0832 351.408 8.58733C371.003 4.19635 390.937 1.48389 410.993 0.479477C417.085 0.170172 423.246 0.0104511 429.476 0.000309942C459.535 -0.0394337 489.477 3.7432 518.579 11.257C518.88 11.7111 519.291 12.0814 519.775 12.3328C520.259 12.5843 520.798 12.7088 521.343 12.6945H523.902C525.014 12.9987 526.118 13.303 527.23 13.6224C533.44 15.4073 539.56 17.3569 545.592 19.4713L547.115 20.0189C562.002 25.3057 576.486 31.6605 590.455 39.0336C603.048 45.664 615.172 53.1453 626.744 61.4253C628.526 62.7031 630.283 63.991 632.014 65.2891C634.116 63.9454 636.253 62.6574 638.426 61.4253C646.818 56.6521 655.731 52.8573 664.99 50.1153C684.347 44.3944 704.829 43.5943 724.574 47.788C749.896 53.1501 772.819 66.4604 791.333 85.3914C798.871 93.1371 805.581 101.646 811.354 110.78C811.773 111.434 812.192 112.096 812.596 112.765C817.558 120.849 821.823 129.34 825.344 138.146C825.474 138.473 825.603 138.777 825.718 139.096C828.969 147.342 831.591 155.821 833.562 164.462C833.653 164.903 833.76 165.337 833.851 165.778C835.694 174.14 836.946 182.621 837.598 191.159C837.598 191.463 837.598 191.775 837.659 192.094C837.979 196.511 838.141 200.973 838.146 205.48C838.146 209.512 838.009 213.512 837.758 217.482C837.758 217.916 837.697 218.365 837.659 218.813C837.59 219.962 837.491 221.095 837.392 222.251C843.209 226.937 848.652 232.066 853.675 237.592C855.893 240.011 858.041 242.521 860.117 245.122C866.442 253.039 872.001 261.538 876.719 270.503C889.597 294.781 897 323.341 897 353.909Z" fill="#008080"/>
<path opacity="0.1" d="M873 514.579C873 519.838 855.079 524.765 823.807 529H232.308C205.991 529.056 180.129 522.067 157.35 508.743L157 508.543C165.987 505.232 182.209 502.145 204.289 499.358L205.279 499.235C215.18 498.011 226.246 496.848 238.34 495.747C238.645 495.747 238.957 495.701 239.262 495.662C248.858 494.8 259.066 493.992 269.886 493.237C270.229 493.237 270.564 493.176 270.907 493.16C275.08 492.857 279.34 492.57 283.687 492.298L285.362 492.19C317.007 490.204 352.978 488.618 391.988 487.571H392.034C397.497 487.417 403.019 487.281 408.599 487.163C414.803 487.014 421.084 486.883 427.441 486.77C432.293 486.662 437.205 486.585 442.133 486.508H442.247C464.478 486.169 487.449 486 510.937 486C569.017 486 623.914 487.07 672.559 488.995H672.696C680.175 489.288 687.517 489.611 694.676 489.942L700.769 490.235C708.847 490.625 716.717 491.043 724.379 491.489C814.478 496.671 873 505.086 873 514.579Z" fill="#008080"/>
<path d="M464.542 482.62C464.518 483.441 464.424 484.259 464.261 485.064C458.963 484.222 453.634 483.46 448.275 482.78C448.275 482.567 448.275 482.346 448.275 482.126C448.325 479.843 448.982 477.615 450.178 475.671C451.747 473.189 454.129 471.636 456.755 471.72C459.381 471.804 461.657 473.501 463.065 476.067C464.131 478.081 464.64 480.343 464.542 482.62Z" fill="#3F3D56"/>
<path d="M464.971 469.616C465.157 463.729 461.663 458.842 457.167 458.7C452.671 458.558 448.876 463.215 448.69 469.102C448.504 474.989 451.998 479.876 456.494 480.018C460.99 480.16 464.785 475.503 464.971 469.616Z" fill="#3F3D56"/>
<path d="M465.386 456.584C465.572 450.697 462.079 445.81 457.583 445.668C453.087 445.526 449.291 450.183 449.105 456.07C448.919 461.956 452.413 466.844 456.909 466.986C461.405 467.128 465.2 462.471 465.386 456.584Z" fill="#3F3D56"/>
<path d="M465.794 443.552C465.98 437.665 462.486 432.778 457.99 432.636C453.494 432.494 449.699 437.151 449.513 443.038C449.327 448.924 452.821 453.812 457.317 453.954C461.813 454.096 465.608 449.439 465.794 443.552Z" fill="#3F3D56"/>
<path d="M466.202 430.52C466.388 424.633 462.894 419.746 458.398 419.604C453.902 419.462 450.106 424.119 449.92 430.006C449.734 435.892 453.228 440.78 457.724 440.922C462.22 441.064 466.016 436.407 466.202 430.52Z" fill="#3F3D56"/>
<path d="M430.364 340.094C429.293 338.643 428.326 337.117 427.472 335.527L448.983 332.688L425.828 332.132C423.761 327.231 422.717 321.959 422.757 316.64C422.798 311.321 423.923 306.066 426.064 301.197L456.603 318.286L428.629 296.333C431.451 291.769 435.184 287.836 439.594 284.779C444.005 281.722 448.998 279.607 454.262 278.567C459.527 277.527 464.949 277.583 470.191 278.732C475.432 279.882 480.381 282.1 484.727 285.247C489.073 288.395 492.723 292.405 495.45 297.027C498.176 301.649 499.92 306.783 500.574 312.11C501.227 317.436 500.775 322.84 499.245 327.983C497.716 333.127 495.143 337.9 491.686 342.005C493.354 344.262 494.77 346.695 495.911 349.259L467.678 362.808L497.616 353.803C499.501 360.024 499.805 366.617 498.5 372.985C497.195 379.353 494.322 385.295 490.141 390.272C494.488 396.169 497.087 403.171 497.642 410.476C498.196 417.781 496.684 425.094 493.278 431.58C489.872 438.066 484.709 443.463 478.38 447.153C472.051 450.842 464.812 452.677 457.489 452.446C450.167 452.215 443.058 449.928 436.974 445.847C430.89 441.766 426.077 436.055 423.087 429.367C420.096 422.679 419.047 415.285 420.061 408.03C421.075 400.774 424.11 393.95 428.819 388.339C423.626 381.291 420.953 372.703 421.229 363.953C421.506 355.203 424.715 346.8 430.342 340.094H430.364Z" fill="#009090"/>
<path opacity="0.1" d="M499.275 366.416C499.009 375.171 495.79 383.578 490.141 390.272C494.488 396.169 497.087 403.171 497.642 410.476C498.196 417.781 496.684 425.094 493.278 431.58C489.872 438.066 484.709 443.463 478.38 447.153C472.051 450.842 464.812 452.677 457.489 452.446C450.167 452.215 443.058 449.928 436.974 445.847C430.89 441.766 426.077 436.055 423.087 429.367C420.096 422.68 419.047 415.285 420.061 408.03C421.075 400.774 424.11 393.951 428.819 388.339C423.818 381.541 499.413 362.04 499.275 366.416Z" fill="black"/>
<path d="M183 492L190.965 491.977H202.194L216.392 261.083L357 26.1974L350.888 19.6304V3L198.823 255.64L183 492Z" fill="#F1C0C0"/>
<path opacity="0.1" d="M191 492H201.43L215.699 260.786L357 25.5761L350.858 19L205.108 257.262L191 492Z" fill="black"/>
<path d="M159 494.116L524.092 521.977L524.404 522L877.734 500.33L878 500.315V485.436L488.675 478.311L163.862 478H161.488L161.229 479.669L159 494.116Z" fill="#F1C0C0"/>
<path opacity="0.1" d="M159 494.116L524.092 521.977L524.404 522L877.734 500.33L878 500.042V485.747H877.688L524.092 497.523L163.862 478H163.809L163.169 478.417L161.229 479.669L159 494.116Z" fill="black"/>
<path opacity="0.1" d="M159 493.857L524 522V497.298L163.168 478L161.229 479.265L159 493.857Z" fill="black"/>
<path d="M351 19.1446L511.831 191.734L506.859 495.32L520.521 496.97L520.749 497H534.41L536.045 204.77L837.203 305.347L842.282 484.428L853.275 485.659L857 486.077L848.379 292.927L533.559 182.423L360.936 3H351V19.1446Z" fill="#F1C0C0"/>
<path opacity="0.1" d="M351 19.1456L511.603 191.746L506.638 495.35L520.28 497L524 181.811L351 3V19.1456Z" fill="black"/>
<path d="M440.449 286.385C441.248 286.815 442.011 287.306 442.732 287.855C443.585 288.594 444.351 289.426 445.016 290.336C448.282 294.52 451.296 299.384 450.977 304.662C450.983 305.43 450.837 306.191 450.546 306.903C450.254 307.615 449.824 308.262 449.279 308.809C447.932 309.947 445.998 310 444.232 310C442.314 310 440.296 310 438.637 309.02C436.977 308.04 435.592 306.132 433.628 306.177C433.351 306.223 433.068 306.223 432.791 306.177C432.113 305.959 431.976 305.076 431.535 304.518C430.773 303.516 429.167 303.764 427.972 304.202C426.777 304.639 425.452 305.295 424.272 304.79C423.587 304.432 423.028 303.877 422.666 303.199C419.842 298.675 419.241 293.238 418.708 287.983C418.38 284.786 415.884 273.883 422.773 276.364C425.818 277.45 428.665 279.621 431.436 281.212L440.449 286.385Z" fill="#3F3D56"/>
<path d="M433.397 287.098C434.01 287.535 434.753 287.757 435.508 287.727C436.263 287.697 436.986 287.417 437.562 286.932C438.692 285.92 439.412 284.535 439.588 283.035C440.347 282.802 440.734 283.787 441.22 284.389C442.07 285.413 443.8 285.397 444.574 286.488C445.112 287.241 444.991 288.287 445.37 289.137C445.864 290.235 447.085 290.807 447.92 291.695C448.708 292.665 449.277 293.791 449.589 294.998L450.834 298.699C451.429 300.239 451.812 301.851 451.972 303.492C452.051 304.312 451.963 305.14 451.716 305.927C451.468 306.714 451.065 307.443 450.53 308.074C448.861 309.857 446.122 310.045 443.701 309.993C442.893 310.01 442.086 309.916 441.303 309.714C439.156 309.052 437.782 306.908 437.213 304.749C436.644 302.589 436.705 300.325 436.371 298.113C436.01 295.94 435.373 293.821 434.474 291.808C433.806 290.243 431.97 287.91 432 286.248C432.547 286.248 432.941 286.744 433.397 287.098Z" fill="#3F3D56"/>
<path d="M436.363 279.727C436.007 278.655 435.8 277.541 435.747 276.414C435.747 274.15 436.788 272.022 437.836 270L429.153 271.17C428.105 271.313 426.935 271.524 426.343 272.392C426.118 272.822 426 273.3 426 273.784C426 274.269 426.118 274.746 426.343 275.176C426.778 276.037 427.124 276.94 427.376 277.87C427.395 278.684 427.489 279.495 427.657 280.292C427.927 280.878 428.306 281.408 428.773 281.854C431.258 284.586 433.119 287.808 434.972 291C434.919 290.909 440.206 286.842 439.994 285.514C439.872 284.76 438.345 283.854 437.859 283.13C437.188 282.078 436.683 280.93 436.363 279.727Z" fill="#BE6F72"/>
<path d="M511 250V257.38L382.635 282.029L375.976 286H353V281.842L479.12 251.843L511 250Z" fill="#F1C0C0"/>
<path opacity="0.1" d="M511 257L382.635 281.976L375.976 286H353L480.056 258.875L511 257Z" fill="black"/>
<path d="M407.258 462.535C405.836 460.84 403.873 459.67 401.688 459.213C399.503 458.756 397.225 459.04 395.226 460.019C394.798 460.217 394.42 460.507 394.121 460.867C393.364 461.909 393.848 463.346 393.917 464.634C394.091 467.776 391.548 470.329 389.263 472.525C388.037 473.702 386.788 474.96 386.236 476.56C385.683 478.161 386.092 480.193 387.575 481.027C388.222 481.346 388.927 481.538 389.648 481.593C392.067 482.057 394.548 482.125 396.989 481.794C399.403 481.34 401.772 479.992 402.816 477.803C403.017 477.21 403.351 476.668 403.792 476.218C405.124 475.183 407.167 476.396 408.681 475.659C409.929 475.049 409.982 474.089 409.997 472.823C410.043 469.324 409.513 465.364 407.258 462.535Z" fill="#008080"/>
<path d="M425.758 462.153C426.71 464.635 426.842 467.339 426.965 469.99C427.035 471.523 427.082 473.162 426.246 474.457C425.41 475.752 423.776 476.434 422.213 476.755C418.985 477.414 415.246 476.794 413.164 474.258C411.569 472.319 411.236 469.661 411.53 467.148C411.778 465.087 412.304 462.674 410.81 461.21C410.423 460.82 409.92 460.544 409.564 460.122C408.79 459.188 408.914 457.778 409.332 456.629C409.876 455.53 410.284 454.369 410.547 453.173C410.609 452.606 421.028 453.572 421.988 454.039C423.296 454.675 423.095 455.74 423.49 457.027C424.039 458.82 425.092 460.436 425.758 462.153Z" fill="#008080"/>
<path d="M427.455 353.345C429.467 354.642 430.244 357.192 430.556 359.559C431.417 366.045 429.909 372.6 429.794 379.147C429.688 388.319 432.355 397.659 430.076 406.543C428.712 411.853 429.871 417.923 428.591 423.286C428.21 424.879 427.509 426.382 427.143 427.975C426.381 431.427 427.181 435.038 428.255 438.414C428.598 439.324 428.816 440.276 428.903 441.244C428.851 442.734 428.471 444.195 427.79 445.523L423.219 456.288C422.708 457.494 420.697 457.692 419.409 457.851C416.986 458.139 414.281 458.344 412.353 456.849C410.425 455.355 409.961 452.851 409.664 450.515C409.094 446.029 408.839 441.509 408.902 436.988C408.985 435.808 408.88 434.622 408.589 433.475C408.17 432.178 407.248 431.055 406.997 429.682C406.677 427.907 407.583 426.162 407.919 424.371C408.149 422.736 408.123 421.075 407.842 419.447C407.545 417.02 407.202 414.592 406.814 412.179C406.265 408.803 407.05 405.473 407.576 402.089C408.071 398.91 407.439 395.671 406.814 392.515C406.868 395.076 406.547 397.632 405.861 400.102C405.457 401.308 404.878 402.461 404.528 403.69C402.966 409.205 406.296 414.994 405.823 420.707C405.602 423.377 404.551 426.017 404.848 428.65C405.054 430.577 405.953 432.345 406.57 434.181C407.187 436.017 407.507 438.118 406.57 439.833C404.094 444.491 405.945 450.826 408.162 455.605C408.613 456.453 409.005 457.33 409.336 458.23C409.991 460.385 409.443 462.699 409.618 464.944C408.98 465.048 408.326 465.006 407.707 464.821C407.088 464.635 406.519 464.312 406.044 463.875C405.709 463.526 405.435 463.116 405.107 462.752C404.192 461.883 403.108 461.209 401.922 460.772C401.226 460.384 400.433 460.202 399.636 460.248C398.799 460.481 398.045 460.947 397.465 461.591C396.711 462.251 395.911 462.857 395.072 463.404C394.714 463.678 394.297 463.863 393.853 463.943C393.63 463.977 393.402 463.941 393.2 463.839C392.999 463.737 392.836 463.574 392.733 463.374C392.685 463.247 392.657 463.114 392.649 462.979C392.366 460.689 392.216 458.384 392.199 456.076C392.199 452.108 387.43 449.377 386.828 445.454C386.348 442.291 387.239 439.066 386.942 435.88C386.797 434.241 386.34 432.633 386.37 430.994C386.37 429.932 386.614 428.893 386.698 427.838C386.768 426.668 386.75 425.494 386.645 424.326L386.409 420.661C386.18 417.042 385.929 413.348 384.496 410.04C382.797 406.178 381.792 402.049 381.524 397.841C381.372 395.185 381.471 392.53 381.166 389.867C380.892 387.462 380.282 385.072 380.458 382.66C380.602 380.794 381.22 378.988 381.364 377.122C381.662 373.533 380.29 370.043 379.216 366.607C378.141 363.17 377.349 359.361 378.758 356.046C378.96 355.502 379.295 355.017 379.734 354.635C380.274 354.279 380.889 354.05 381.532 353.967C394.605 351.233 408.005 350.382 421.321 351.441C423.492 351.563 425.599 352.218 427.455 353.345Z" fill="#3F3D56"/>
<path d="M384.5 272C391.404 272 397 266.627 397 260C397 253.373 391.404 248 384.5 248C377.596 248 372 253.373 372 260C372 266.627 377.596 272 384.5 272Z" fill="#BE6F72"/>
<path d="M381.859 274.982C382.04 275.681 382.04 276.413 381.859 277.112C381.661 277.6 381.382 278.054 381.033 278.455C379.814 279.982 378.465 281.406 377 282.714C377.746 284.332 379.09 285.62 380.766 286.324C382.43 287.011 384.176 287.496 385.963 287.766C386.855 287.994 387.784 288.056 388.699 287.949C389.543 287.743 390.342 287.392 391.058 286.911L398.056 282.843C399.112 282.288 400.089 281.603 400.965 280.806C402.248 279.525 402.975 277.814 402.993 276.028C403.026 275.708 402.936 275.388 402.742 275.127C402.474 274.901 402.137 274.764 401.783 274.738C399.322 274.212 397.38 272.273 396.279 270.075C395.284 267.822 394.64 265.437 394.368 263L386.907 266.816C385.798 267.388 384.697 267.961 383.549 268.457C382.818 268.778 381.34 269.045 380.821 269.693C379.83 270.892 381.6 273.54 381.859 274.982Z" fill="#BE6F72"/>
<path d="M377.523 280.783C376.499 281.628 375.699 282.715 375.196 283.948C374.726 285.473 375.196 287.082 375.62 288.592C377.61 295.027 379.13 301.6 380.168 308.258C380.805 312.833 381.04 317.477 381.35 322.106C381.987 331.546 382.912 346.599 384.147 355.979C388.695 356.184 393.129 354.85 397.639 354.362C406.067 353.462 414.746 355.521 423 353.599C420.999 345.646 418.998 332.065 416.997 324.119C416.112 320.988 415.498 317.786 415.163 314.549C414.988 312.223 415.095 309.89 415.125 307.549C415.193 302.973 414.943 298.398 414.693 293.823C414.405 288.485 414.117 283.147 412.859 277.923C412.771 277.258 412.461 276.642 411.979 276.177C411.221 275.621 410.236 275.819 409.334 275.941C406.572 276.294 403.777 275.627 401.467 274.065C400.466 273.379 399.124 272.54 398.192 273.302C397.794 273.762 397.532 274.325 397.434 274.927C397.022 276.005 396.385 276.983 395.567 277.795C394.749 278.606 393.768 279.232 392.689 279.632C390.529 280.419 388.267 280.886 385.974 281.019C385.272 281.171 384.54 281.088 383.89 280.783C382.813 280.12 382.737 277.733 381.381 277.573C380.191 277.435 378.326 280.013 377.523 280.783Z" fill="#3F3D56"/>
<path d="M395.317 299.103C392.486 296.39 391.243 292.455 389.18 289.112C387.775 286.864 385.98 284.886 383.879 283.271C382.823 282.572 381.855 281.749 380.995 280.819C380.266 279.92 379.714 278.721 378.609 278.375C378.153 278.276 377.679 278.289 377.229 278.413C376.778 278.538 376.365 278.77 376.024 279.09C375.348 279.735 374.708 280.418 374.106 281.134C370.854 284.508 365.139 284.977 362.562 288.881C361.866 289.709 361.394 290.701 361.188 291.764C360.446 297.446 361.913 303.197 365.285 307.827C365.938 308.9 366.94 309.714 368.123 310.132C367.963 311.565 368.152 313.016 368.675 314.36C370.096 319.224 371.841 323.987 373.899 328.617C373.407 330.428 373.063 332.276 372.871 334.143C372.334 338.839 372.833 343.604 372.327 348.307C371.912 352.15 370.793 355.893 370.754 359.744C370.754 360.359 370.808 361.089 371.337 361.404C371.619 361.549 371.934 361.615 372.25 361.596L381.685 361.88C387.162 362.042 392.693 362.203 398.086 361.189C398.804 361.082 399.501 360.862 400.149 360.535C401.975 359.513 402.581 357.207 402.873 355.155C403.253 352.494 403.405 349.804 403.325 347.116C404.468 350.736 405.826 354.479 409.278 356.047C411.103 356.877 413.19 356.816 415.192 356.762C419.507 356.569 423.808 356.125 428.072 355.432C428.334 355.465 428.601 355.435 428.851 355.346C429.1 355.257 429.325 355.111 429.508 354.918C429.69 354.726 429.826 354.494 429.903 354.24C429.98 353.987 429.996 353.718 429.951 353.457L429.997 349.26C430.089 340.737 427.98 332.59 427.159 324.105C426.898 321.43 426.921 318.725 426.269 316.104C426.001 315.005 425.609 313.929 425.371 312.822C425.167 311.739 425.039 310.642 424.988 309.541L424.39 301.086C424.106 297.174 423.699 293.401 423.4 289.496C423.236 285.694 422.686 281.919 421.758 278.229C421.091 275.923 419.703 273.31 417.302 273.026C416.021 272.88 414.778 273.441 413.558 273.833C410.56 274.778 407.343 274.765 404.353 273.794C403.429 273.429 402.467 273.171 401.484 273.026C400.989 272.958 400.486 273.024 400.025 273.216C399.564 273.407 399.162 273.719 398.861 274.117C398.563 274.718 398.423 275.384 398.454 276.054C398.094 283.732 397.426 291.641 395.317 299.103Z" fill="#008080"/>
<path d="M383.444 299.257C379.882 295.535 376.227 291.745 371.638 289.379C369.83 288.445 367.775 287.74 365.774 288.092C363.773 288.445 361.911 290.167 362.003 292.181C362.065 293.429 362.83 294.532 363.07 295.757C363.348 297.136 362.946 298.606 363.379 299.938C363.73 300.816 364.256 301.615 364.924 302.289L370.394 308.713C372.712 311.393 375.03 314.112 378.012 315.965C380.994 317.818 384.858 318.683 388.134 317.366C390.464 316.292 392.402 314.53 393.681 312.32C395.041 310.176 395.999 307.833 397.274 305.62C399.258 302.084 401.876 298.936 405 296.332C403.393 295.918 401.376 295.336 400.364 294.034C400.076 293.621 399.83 293.179 399.63 292.717L398.379 290.037C397.953 290.015 397.527 290.081 397.128 290.23C396.729 290.379 396.366 290.608 396.061 290.903C395.524 291.517 394.949 292.098 394.338 292.641C393.248 293.452 391.773 293.674 390.784 294.601C390.401 294.999 390.055 295.429 389.748 295.887C389 296.862 388.051 297.666 386.964 298.248C385.876 298.829 384.676 299.173 383.444 299.257Z" fill="#3F3D56"/>
<path d="M404.966 283.551C407.563 278.752 407.443 272.998 408.184 267.578C408.264 266.142 408.762 264.763 409.614 263.613C411.111 261.9 413.753 261.877 416.013 262.097C416.679 262.173 417.51 262.491 417.472 263.166C417.42 263.408 417.303 263.63 417.135 263.81C414.945 266.674 413.656 270.14 413.438 273.756C414.613 274.583 416.432 272.884 417.562 273.756C418.31 274.393 417.966 275.652 417.517 276.561C416.474 278.669 415.399 280.761 414.291 282.838C413.407 284.669 412.254 286.353 410.871 287.834C409.921 288.759 408.805 289.487 407.84 290.396C405.595 292.527 404.24 295.536 401.92 297.613C401.724 297.828 401.458 297.966 401.171 298C400.876 297.979 400.598 297.852 400.386 297.644C399.227 296.689 398.265 295.511 397.557 294.179C396.673 292.527 396.808 292.041 398.2 290.874C400.805 288.789 403.342 286.553 404.966 283.551Z" fill="#BE6F72"/>
<path d="M378.793 296.537C379.234 296.828 379.779 297.159 380.264 296.915C380.462 296.787 380.631 296.611 380.757 296.403C381.598 295.201 382.299 293.894 382.846 292.511C382.94 292.315 382.992 292.1 383 291.88C383 291.376 382.581 291.006 382.191 290.714C380.102 289.288 377.857 288.145 375.505 287.311C373.564 286.523 371.534 285.837 369.474 286.034C368.701 286.09 367.945 286.313 367.254 286.689C366.563 287.065 365.949 287.588 365.451 288.225C363.98 290.249 366.444 290.864 367.989 291.597C371.563 293.338 375.432 294.346 378.793 296.537Z" fill="#008080"/>
<path opacity="0.1" d="M376.014 309.024C375.984 309.201 376.002 309.382 376.067 309.551C376.133 309.721 376.243 309.874 376.39 310C376.649 308.901 376.309 307.739 376.577 306.632C376.971 304.967 378.839 303.713 379 302.041C375.576 301.46 376.041 307.228 376.014 309.024Z" fill="black"/>
<path opacity="0.2" d="M511 250V257.196L479.94 259L479 251.797L511 250Z" fill="black"/>
<path d="M373.63 261.644C375.516 260.1 374.424 256.864 375.702 254.791C376.445 253.657 377.7 253.06 378.934 252.553C380.422 251.854 382.016 251.411 383.651 251.241C384.469 251.162 385.295 251.269 386.067 251.554C386.838 251.84 387.536 252.296 388.108 252.889C388.591 253.441 388.918 254.112 389.371 254.686C389.932 255.356 390.663 255.861 391.487 256.147C392.311 256.433 393.197 256.49 394.051 256.312C395.039 256.088 396.064 255.335 395.997 254.321C395.885 253.704 395.572 253.142 395.105 252.725L392.981 250.361C390.567 247.676 387.885 244.828 384.342 244.156C381.875 243.687 379.35 244.35 376.972 245.148C376.014 245.469 374.937 245.946 374.67 246.923C374.491 247.594 374.759 248.325 374.603 249.004C374.298 250.353 372.575 250.808 371.773 251.942C370.97 253.075 371.215 254.418 370.985 255.671C370.755 256.923 370.086 258.146 370.005 259.444C369.953 260.227 370.346 261.681 371.223 261.965C372.099 262.248 373.087 260.712 373.63 261.644Z" fill="#3F3D56"/>
<path d="M396 253.238C395.347 249.985 393.94 246.913 391.882 244.248C390.051 241.757 387.505 239.826 384.55 238.688C383.073 238.136 381.485 237.912 379.904 238.031C378.323 238.15 376.791 238.61 375.423 239.375C373.392 240.76 371.811 242.664 370.863 244.869C368.858 248.994 368.115 254.037 370.445 258C371.374 256.921 372.969 257.408 374.378 257.017C376.143 256.536 377.637 255.412 379.317 254.71C384.388 252.573 390.581 254.303 396 253.238Z" fill="#FED253"/>
<path opacity="0.1" d="M372.21 252.871C372.037 251.583 371.925 250.088 372.885 249.172C372.933 249.116 372.993 249.071 373.062 249.041C373.131 249.012 373.207 248.998 373.283 249C373.349 249.021 373.411 249.055 373.464 249.099C373.517 249.143 373.56 249.197 373.59 249.258C374.144 250.092 374.616 250.974 375 251.891C374.441 251.768 373.856 251.808 373.321 252.006C372.787 252.204 372.326 252.55 372 253" fill="black"/>
<path opacity="0.1" d="M389.386 248.668L389.09 246.034C389.043 245.817 389.063 245.592 389.148 245.384C389.272 245.211 389.463 245.084 389.684 245.03C389.906 244.975 390.142 244.996 390.347 245.089C390.751 245.29 391.084 245.589 391.308 245.952C391.992 246.895 392.559 247.902 393 248.956C391.677 248.727 390.316 248.742 389 249" fill="black"/>
<path opacity="0.1" d="M396 359V365.626L390.888 366H364V359H396Z" fill="black"/>
<path d="M396 359.462V366H363.183L276 257.142V252H294.277L396 359.462Z" fill="#F1C0C0"/>
<path opacity="0.1" d="M396 359.462V366H363.183L276 257.142V252H294.277L396 359.462Z" fill="black"/>
<path opacity="0.1" d="M396 359.462V366H363.183L276 257.142V252L363.655 359.462H396Z" fill="black"/>
<path d="M287.929 469.219C287.985 469.532 287.978 469.854 287.909 470.164C287.839 470.474 287.709 470.765 287.525 471.021C287.341 471.277 287.108 471.49 286.841 471.649C286.573 471.807 286.277 471.907 285.971 471.942C283.893 472.667 281.688 473.384 280.216 475.027C278.744 476.67 278.452 479.716 280.216 481.051C281.118 481.612 282.153 481.903 283.205 481.891C286.591 482.13 290.119 482.084 293.19 480.603C295.388 479.554 297.458 477.765 299.872 477.927C301.12 478.004 302.45 478.606 303.564 478.02C304.677 477.433 304.991 475.798 304.999 474.433C305.027 471.583 304.611 468.747 303.765 466.034C303.653 465.664 298.9 465.378 298.332 465.263L292.57 464.491C291.479 464.345 289.125 463.496 288.265 464.437C287.406 465.378 287.929 468.101 287.929 469.219Z" fill="#008080"/>
<path d="M323.191 450.246C323.424 451.61 323.802 452.941 324.318 454.214C325.081 456.274 326.058 458.462 327.927 459.462C329.625 460.363 331.708 460.038 333.435 459.182C334.155 458.865 334.786 458.356 335.268 457.705C335.825 456.675 336.073 455.489 335.981 454.305C335.981 451.374 335.817 448.345 334.554 445.74C333.47 443.468 331.58 441.514 331.551 439L325.053 440.333C324.705 440.368 324.373 440.507 324.097 440.734C323.891 440.964 323.748 441.25 323.683 441.56C322.989 444.394 322.822 447.344 323.191 450.246Z" fill="#008080"/>
<path d="M240.129 377.745C239.841 380.23 239.963 382.893 241.235 385.038C242.507 387.183 245.188 388.603 247.505 387.747C247.623 387.716 247.735 387.661 247.832 387.585C247.93 387.51 248.012 387.415 248.073 387.307C248.134 387.046 248.099 386.771 247.974 386.535C246.951 383.753 247.036 380.673 248.209 377.954C248.36 377.599 248.686 377.182 249.042 377.321C249.191 377.398 249.311 377.522 249.383 377.676C249.749 378.322 249.933 379.059 249.913 379.806C249.806 380.482 249.786 381.169 249.852 381.851C249.996 382.514 250.693 383.14 251.299 382.854C251.474 382.744 251.625 382.6 251.744 382.429C251.862 382.257 251.945 382.063 251.988 381.859C253.676 376.881 252.911 371.44 252.139 366.231C252.146 366.112 252.126 365.992 252.082 365.881C252.038 365.77 251.971 365.67 251.885 365.588C251.799 365.506 251.697 365.445 251.585 365.408C251.473 365.371 251.355 365.36 251.238 365.375C247.664 365.012 245.71 364.14 243.666 367.528C241.909 370.383 240.129 374.311 240.129 377.745Z" fill="#008080"/>
<path d="M282.216 365.192C281.146 369.635 280.069 374.132 280 378.697C280.019 381.54 280.233 384.379 280.642 387.194L281.444 393.805C281.719 396.034 281.987 398.255 282.376 400.461C282.625 401.598 282.761 402.756 282.781 403.92C282.706 405.066 282.525 406.204 282.239 407.317C281.758 409.654 281.49 412.031 281.437 414.416C281.352 418.234 281.826 422.051 282.124 425.868C282.719 433.474 282.63 441.118 281.857 448.709C281.548 450.757 281.993 452.849 283.11 454.594C283.563 455.145 283.936 455.757 284.218 456.411C284.791 458.16 283.454 459.908 283.11 461.702C282.89 463.101 283.235 464.53 284.069 465.675C284.902 466.82 286.157 467.587 287.557 467.809C293.67 468.534 299.951 468.206 305.46 471C306.041 469.305 304.772 467.381 305.353 465.656C305.72 464.587 306.728 463.893 307.416 462.992C308.34 461.619 308.8 459.988 308.73 458.335C308.757 456.178 308.373 454.036 307.599 452.022C306.95 450.342 306.018 448.686 306.071 446.884C306.071 445.998 306.384 445.067 306.025 444.25C305.779 443.781 305.444 443.364 305.04 443.021C302.756 440.522 301.353 437.345 301.043 433.975C300.745 430.63 300.853 427.262 301.364 423.944C301.739 420.783 302.243 417.447 304.253 414.981C303.321 407.505 303.868 399.918 305.865 392.652C306.063 391.98 306.377 391.201 307.064 391.041C307.338 391.013 307.614 391.051 307.869 391.152C308.124 391.253 308.351 391.414 308.531 391.621C309.731 392.743 310.304 394.369 310.824 395.927C311.397 397.614 311.978 399.416 311.542 401.141C311.359 401.904 310.992 402.576 310.778 403.309C310.313 404.782 310.394 406.372 311.007 407.79C311.306 408.308 311.493 408.883 311.557 409.477C311.486 409.988 311.332 410.483 311.099 410.943C310.815 411.846 310.725 412.799 310.835 413.74C310.944 414.68 311.25 415.587 311.733 416.401C312.707 418.022 313.909 419.496 315.301 420.776C314.636 423.706 314.808 426.764 315.798 429.601C315.869 429.728 315.915 429.869 315.932 430.014C315.949 430.16 315.937 430.307 315.897 430.448C315.76 430.738 315.408 430.845 315.133 431.051C314.369 431.677 314.843 432.86 315.355 433.677C316.758 435.919 318.307 438.067 319.993 440.105C321.521 441.93 321.384 445.449 323.661 446.105C324.617 446.312 325.607 446.312 326.564 446.105C328.811 445.762 331.317 445.113 332.417 443.128C332.868 442.311 333.051 441.319 333.754 440.708C334.457 440.097 335.367 439.991 335.756 439.258C336.146 438.525 335.71 437.563 335.84 436.716C335.97 435.868 336.711 435.189 336.948 434.296C337.514 432.234 335.107 430.54 334.778 428.433C334.305 425.379 338.156 423.089 337.995 420.035C337.659 413.401 337.445 406.737 337.101 400.103C336.67 394.16 336.608 388.197 336.918 382.247C337.185 378.544 337.682 374.666 336.322 371.223C334.366 366.368 328.971 363.642 323.752 363.123C318.534 362.604 313.33 363.841 308.157 364.65C299.572 365.972 290.849 366.154 282.216 365.192Z" fill="#3F3D56"/>
<path d="M297.5 292C304.404 292 310 286.627 310 280C310 273.373 304.404 268 297.5 268C290.596 268 285 273.373 285 280C285 286.627 290.596 292 297.5 292Z" fill="#FBBEBE"/>
<path d="M292.198 294.518C291.773 295.463 291.06 296.263 290.151 296.813C289.242 297.363 288.18 297.637 287.105 297.598C286.652 299.388 287.737 301.193 288.977 302.603C291.552 305.468 294.88 307.625 298.617 308.851C302.354 310.077 306.366 310.327 310.238 309.576C311.745 309.318 313.175 308.748 314.427 307.906C316.114 306.558 317.247 304.682 317.624 302.61C317.983 300.553 318.086 298.463 317.929 296.383C317.972 295.972 317.85 295.561 317.585 295.234C317.274 295.003 316.888 294.882 316.494 294.891C313.857 294.667 311.104 294.57 308.788 293.332C306.471 292.094 304.825 289.297 305.941 287C305.761 287.358 301.206 287.53 300.606 287.604C298.726 287.858 296.846 288.141 294.975 288.469C294.075 288.517 293.186 288.677 292.331 288.947C291.2 289.506 291.621 289.23 291.886 290.244C292.284 291.796 292.869 292.907 292.198 294.518Z" fill="#FBBEBE"/>
<path d="M301.965 301.919C300.316 301.938 298.67 301.755 297.065 301.376C295.444 300.997 294.015 300.043 293.044 298.691C292.478 297.834 292.111 296.756 291.209 296.274C289.733 295.509 288.051 296.802 286.874 297.987C285.802 299.156 284.56 300.157 283.189 300.955C281.553 301.819 279.642 302.125 278.098 303.143C276.891 304.055 275.856 305.173 275.04 306.447L264.207 321.209C259.857 327.145 256.073 333.516 252.197 339.781C248.841 345.204 247.082 351.446 244.552 357.297C244.351 357.655 244.269 358.067 244.315 358.475C244.407 358.873 244.888 359.194 245.225 358.965C244.086 360.097 245.087 362.024 244.819 363.615C244.515 364.728 243.881 365.723 243 366.468C244.683 366.249 246.391 366.329 248.046 366.705C249.756 367.19 251.37 367.967 252.816 369C253.741 368.855 253.657 367.21 254.345 366.598C254.758 366.239 255.369 366.285 255.912 366.178C257.953 365.78 258.764 363.324 260.331 361.94C261.638 360.785 263.488 360.41 264.872 359.324C267.12 357.557 267.601 354.413 268.779 351.805C269.78 349.595 271.355 347.667 272.234 345.403C272.807 343.934 273.083 342.343 273.901 340.99C275.208 338.802 277.67 337.639 280.017 336.591C281.5 335.926 283.075 335.238 284.672 335.345C284.588 338.901 284.137 342.405 284.909 345.877C285.177 347.101 285.552 348.294 285.873 349.51C287.333 354.987 287.677 360.693 287.746 366.338C291.258 365.534 294.846 365.103 298.448 365.053C301.285 364.969 304.113 365.336 306.95 365.283C310.313 365.221 313.639 364.571 317.003 364.342C320.366 364.112 323.883 364.342 326.857 365.872C326.615 361.024 326.751 356.165 327.262 351.339L328.072 343.736C328.255 341.527 328.595 339.333 329.089 337.173C329.533 335.429 330.175 333.746 330.664 332.01C332.384 325.891 332.071 319.358 331.742 312.987C331.574 309.713 330.312 306.493 328.829 303.579C328.292 302.496 327.679 301.453 326.995 300.458C325.202 297.987 322.814 296.011 320.052 294.714C317.29 293.416 314.245 292.84 311.2 293.038C310.811 293.05 310.428 293.133 310.069 293.283C309.423 293.696 308.919 294.297 308.624 295.004C307.042 297.848 304.747 300.231 301.965 301.919Z" fill="#3F3D56"/>
<path d="M286.751 284.074C287.095 283.3 288.02 283.014 288.586 282.394C289.672 281.218 289.183 279.337 289.351 277.75C289.626 275.428 291.531 273.485 293.711 272.656C295.934 271.934 298.299 271.783 300.594 272.215C301.699 272.297 302.766 272.656 303.7 273.26C304.097 273.554 304.464 273.934 304.839 274.205C305.522 274.623 306.34 274.754 307.117 274.57C307.895 274.386 308.57 273.902 309 273.222C306.292 269.924 303.294 266.441 299.179 265.427C297.768 265.135 296.329 264.997 294.889 265.016C292.984 264.978 291.018 264.947 289.259 265.682C286.865 266.681 285.183 268.98 284.318 271.457C283.563 273.967 283.158 276.573 283.118 279.197C282.961 280.948 282.961 282.71 283.118 284.461C283.413 286.852 284.291 289.132 285.672 291.095C285.859 291.4 286.123 291.648 286.437 291.815C289.925 293.363 286.468 284.717 286.751 284.074Z" fill="#3F3D56"/>
<path d="M308 272.062C307.582 268.467 305.025 265.498 302.31 263.11C300.121 261.038 297.513 259.463 294.664 258.492C291.796 257.645 288.494 257.828 286.037 259.545C284.059 260.927 282.804 263.125 281.838 265.338C280.569 267.95 279.94 270.829 280.004 273.734C280.195 276.619 281.594 279.542 284.09 281C284.987 279.672 286.547 278.985 288.046 278.443C294.578 275.957 301.239 273.827 308 272.062Z" fill="#FED253"/>
<path opacity="0.1" d="M285.562 270C285.728 270 285.836 270.273 285.919 270.497C286.34 271.547 286.702 272.654 287 273.807C286.395 274.014 285.356 274.245 285.056 273.393C284.895 272.963 285.087 269.959 285.562 270Z" fill="black"/>
<path opacity="0.1" d="M302.468 268.951C302.253 269.135 302.001 268.759 302.001 268.487V265.382C301.995 265.296 302.017 265.21 302.064 265.134C302.101 265.096 302.147 265.066 302.198 265.044C302.248 265.022 302.304 265.009 302.36 265.006C303.088 264.934 303.69 265.486 304.158 266.015C304.867 266.87 305.484 267.784 306 268.743L302.199 268.639" fill="black"/>
<path d="M342.864 317.466C343.55 316.804 344.281 316.194 345.054 315.641C347.117 314.24 349.613 313.687 351.93 312.793C354.246 311.9 356.6 310.453 357.502 308.106C357.953 306.638 358.1 305.091 357.934 303.562C357.955 302.922 357.844 302.285 357.606 301.692C357.322 301.168 356.919 300.721 356.429 300.389C353.285 298.027 349.069 297.837 345.166 298.08C336.56 298.622 328.125 300.763 320.278 304.395C319.863 304.535 319.499 304.799 319.235 305.153C319.082 305.481 319.013 305.843 319.034 306.205C318.895 308.438 319.181 310.678 319.876 312.801C320.904 315.497 323.019 317.67 323.906 320.419C324.308 321.654 324.442 322.964 324.792 324.206C325.08 325.488 325.826 326.616 326.886 327.371C329.828 329.158 332.606 326.758 334.648 324.895L342.864 317.466Z" fill="#3F3D56"/>
<path d="M303.186 328.119L299.34 319.751C298.776 318.591 298.289 317.396 297.883 316.172C297.443 314.712 297.231 313.199 296.821 311.731C295.471 306.843 292.064 302.772 290.403 297.983C290.298 297.551 290.084 297.152 289.781 296.825C289.538 296.654 289.261 296.538 288.969 296.486C288.676 296.434 288.376 296.446 288.089 296.523C285.768 296.924 283.954 298.687 281.83 299.685C280.844 300.139 279.782 300.442 278.795 300.964C278.302 301.197 277.866 301.533 277.515 301.95C277.164 302.366 276.907 302.853 276.762 303.378C276.527 304.535 277.104 305.648 277.589 306.775C279.653 311.421 280.123 316.611 280.214 321.696C280.282 325.116 280.108 328.785 278.082 331.532C274.19 336.828 276.679 344.606 278.135 351.015C278.31 351.772 278.515 352.589 278.636 353.391C278.764 354.394 278.823 355.406 278.811 356.417C278.811 359.814 278.621 363.318 277.195 366.397C278.603 367.144 280.155 367.583 281.747 367.683C286.152 368.243 290.575 368.637 295.016 368.864C296.407 368.994 297.81 368.923 299.181 368.652C300.809 368.213 302.244 367.246 303.259 365.903C304.274 364.56 304.812 362.919 304.787 361.237C305.03 363.333 305.478 365.61 307.003 367.063C308.527 368.516 310.75 368.735 312.821 368.849C318.667 369.158 324.528 368.993 330.347 368.357C330.718 368.34 331.083 368.255 331.424 368.107C332.547 367.547 332.607 366.004 332.516 364.763C332.349 362.44 332.175 360.117 331.894 357.809C331.656 356.338 331.535 354.851 331.53 353.36C331.646 351.828 331.9 350.308 332.289 348.821C333.305 344.099 334.11 339.28 333.768 334.445C333.633 333.267 333.585 332.081 333.624 330.896C333.821 328.225 335.232 325.683 334.967 323.027C334.208 315.219 333.594 307.206 331.409 299.67C331.014 298.323 330.514 296.878 329.338 296.107C327.82 295.093 325.688 295.622 323.951 294.979C323.136 294.601 322.361 294.142 321.637 293.61C320.065 292.629 318.263 292.076 316.41 292.006C315.014 291.953 313.459 292.263 312.617 293.383C312.227 294.013 311.969 294.716 311.858 295.448C310.758 300.064 309.468 304.626 308.178 309.189L306.942 313.562L303.626 325.305C303.3 326.553 303.52 326.939 303.186 328.119Z" fill="#008080"/>
<path d="M322.669 282L397 359.434V366H363.857L308 293.731" fill="#F1C0C0"/>
<path opacity="0.1" d="M322.669 282L397 359.434V366H363.857L308 293.731" fill="black"/>
<path opacity="0.1" d="M309.183 293L309.422 293.083L364.334 359.46H397V366H363.857L308 294.017L309.183 293Z" fill="black"/>
<path d="M318.503 294.103C315.868 295.239 312.939 296.694 312.148 299.426C311.992 299.906 311.959 300.416 312.051 300.911C312.243 301.494 312.61 302.005 313.104 302.377C313.597 302.75 314.193 302.966 314.814 302.997C316.054 303.027 317.287 302.805 318.436 302.344L333.984 297.28C334.406 297.147 334.888 296.946 334.993 296.538C335.02 296.281 334.968 296.022 334.842 295.796C334.361 294.637 333.886 292.269 332.877 291.46C332.049 290.806 330.408 291.036 329.406 291.051C325.551 291.081 321.929 292.618 318.503 294.103Z" fill="#008080"/>
<path d="M332.341 297.876C334.977 297.868 337.598 298.288 340.107 299.119C342.628 299.964 344.861 301.537 346.54 303.653C347.029 304.245 347.376 304.946 347.555 305.701C347.707 306.483 350.177 306.952 349.631 307.484C351.29 307.21 350.896 308.015 352.578 308C354.26 307.984 356.079 307.539 357.086 306.155C357.786 305.018 358.098 303.673 357.973 302.332C357.995 301.404 357.824 300.482 357.473 299.627C356.715 297.986 354.972 297.102 353.366 296.344L339.834 289.957C339.05 289.527 338.207 289.218 337.334 289.043C336.6 288.971 335.86 288.99 335.129 289.097L329 289.824C330.34 290.719 331.432 291.959 332.166 293.422C332.901 294.885 333.254 296.52 333.19 298.166" fill="#3F3D56"/>
</svg>
